G04 #@! TF.GenerationSoftware,KiCad,Pcbnew,(5.1.9-1-g591a07d2d9)-1*
G04 #@! TF.CreationDate,2021-07-12T22:14:49-06:00*
G04 #@! TF.ProjectId,keyboard-layout,6b657962-6f61-4726-942d-6c61796f7574,rev?*
G04 #@! TF.SameCoordinates,Original*
G04 #@! TF.FileFunction,Paste,Bot*
G04 #@! TF.FilePolarity,Positive*
%FSLAX46Y46*%
G04 Gerber Fmt 4.6, Leading zero omitted, Abs format (unit mm)*
G04 Created by KiCad (PCBNEW (5.1.9-1-g591a07d2d9)-1) date 2021-07-12 22:14:49*
%MOMM*%
%LPD*%
G01*
G04 APERTURE LIST*
%ADD10R,0.550000X1.500000*%
%ADD11R,1.500000X0.550000*%
%ADD12R,1.200000X1.200000*%
%ADD13R,2.350000X0.800000*%
%ADD14R,0.500000X1.400000*%
%ADD15O,1.500000X4.000000*%
%ADD16R,1.000000X1.700000*%
%ADD17C,0.100000*%
G04 APERTURE END LIST*
D10*
X122425000Y-110625000D03*
X121625000Y-110625000D03*
X120825000Y-110625000D03*
X120025000Y-110625000D03*
X119225000Y-110625000D03*
X118425000Y-110625000D03*
X117625000Y-110625000D03*
X116825000Y-110625000D03*
X116025000Y-110625000D03*
X115225000Y-110625000D03*
X114425000Y-110625000D03*
D11*
X112725000Y-108925000D03*
X112725000Y-108125000D03*
X112725000Y-107325000D03*
X112725000Y-106525000D03*
X112725000Y-105725000D03*
X112725000Y-104925000D03*
X112725000Y-104125000D03*
X112725000Y-103325000D03*
X112725000Y-102525000D03*
X112725000Y-101725000D03*
X112725000Y-100925000D03*
D10*
X114425000Y-99225000D03*
X115225000Y-99225000D03*
X116025000Y-99225000D03*
X116825000Y-99225000D03*
X117625000Y-99225000D03*
X118425000Y-99225000D03*
X119225000Y-99225000D03*
X120025000Y-99225000D03*
X120825000Y-99225000D03*
X121625000Y-99225000D03*
X122425000Y-99225000D03*
D11*
X124125000Y-100925000D03*
X124125000Y-101725000D03*
X124125000Y-102525000D03*
X124125000Y-103325000D03*
X124125000Y-104125000D03*
X124125000Y-104925000D03*
X124125000Y-105725000D03*
X124125000Y-106525000D03*
X124125000Y-107325000D03*
X124125000Y-108125000D03*
X124125000Y-108925000D03*
D12*
X77975000Y-111250000D03*
X81125000Y-111250000D03*
X70825000Y-92200000D03*
X73975000Y-92200000D03*
X151775000Y-54100000D03*
X154925000Y-54100000D03*
X89875000Y-92200000D03*
X93025000Y-92200000D03*
X54125000Y-111250000D03*
X57275000Y-111250000D03*
X75575000Y-54100000D03*
X78725000Y-54100000D03*
X127975000Y-92200000D03*
X131125000Y-92200000D03*
X294675000Y-92200000D03*
X297825000Y-92200000D03*
X170775000Y-54100000D03*
X173925000Y-54100000D03*
X32725000Y-54100000D03*
X35875000Y-54100000D03*
X132750000Y-54100000D03*
X135900000Y-54100000D03*
X242275000Y-92200000D03*
X245425000Y-92200000D03*
X39875000Y-92200000D03*
X43025000Y-92200000D03*
X268475000Y-92200000D03*
X271625000Y-92200000D03*
X232725000Y-73150000D03*
X235875000Y-73150000D03*
X80325000Y-73150000D03*
X83475000Y-73150000D03*
X313725000Y-111250000D03*
X316875000Y-111250000D03*
X113650000Y-54100000D03*
X116800000Y-54100000D03*
X251775000Y-73150000D03*
X254925000Y-73150000D03*
X56525000Y-54100000D03*
X59675000Y-54100000D03*
X313725000Y-73150000D03*
X316875000Y-73150000D03*
X313725000Y-92200000D03*
X316875000Y-92200000D03*
X227975000Y-54100000D03*
X231125000Y-54100000D03*
X208925000Y-54100000D03*
X212075000Y-54100000D03*
X166075000Y-92200000D03*
X169225000Y-92200000D03*
X237525000Y-35050000D03*
X240675000Y-35050000D03*
X185125000Y-92200000D03*
X188275000Y-92200000D03*
X275625000Y-111250000D03*
X278775000Y-111250000D03*
X213675000Y-73150000D03*
X216825000Y-73150000D03*
X194625000Y-73150000D03*
X197775000Y-73150000D03*
X175575000Y-73150000D03*
X178725000Y-73150000D03*
X189875000Y-54100000D03*
X193025000Y-54100000D03*
X156525000Y-73150000D03*
X159675000Y-73150000D03*
X137475000Y-73150000D03*
X140625000Y-73150000D03*
X237525000Y-111250000D03*
X240675000Y-111250000D03*
X118425000Y-73150000D03*
X121575000Y-73150000D03*
X27975000Y-35050000D03*
X31125000Y-35050000D03*
X256575000Y-35050000D03*
X259725000Y-35050000D03*
X282725000Y-73150000D03*
X285875000Y-73150000D03*
X94625000Y-54100000D03*
X97775000Y-54100000D03*
X294675000Y-111250000D03*
X297825000Y-111250000D03*
X223175000Y-92200000D03*
X226325000Y-92200000D03*
X313725000Y-54100000D03*
X316875000Y-54100000D03*
X99375000Y-73150000D03*
X102525000Y-73150000D03*
X30325000Y-111250000D03*
X33475000Y-111250000D03*
X256575000Y-111250000D03*
X259725000Y-111250000D03*
X204175000Y-92200000D03*
X207325000Y-92200000D03*
X35115000Y-73150000D03*
X38265000Y-73150000D03*
X108925000Y-92200000D03*
X112075000Y-92200000D03*
X289875000Y-54100000D03*
X293025000Y-54100000D03*
X285125000Y-35050000D03*
X288275000Y-35050000D03*
X147025000Y-92200000D03*
X150175000Y-92200000D03*
X218475000Y-111250000D03*
X221625000Y-111250000D03*
X61275000Y-73150000D03*
X64425000Y-73150000D03*
X313725000Y-35050000D03*
X316875000Y-35050000D03*
X266025000Y-54100000D03*
X269175000Y-54100000D03*
X247025000Y-54100000D03*
X250175000Y-54100000D03*
X199425000Y-35050000D03*
X202575000Y-35050000D03*
X180375000Y-35050000D03*
X183525000Y-35050000D03*
X161325000Y-35050000D03*
X164475000Y-35050000D03*
X142275000Y-35050000D03*
X145425000Y-35050000D03*
X123225000Y-35050000D03*
X126375000Y-35050000D03*
X104175000Y-35050000D03*
X107325000Y-35050000D03*
X85125000Y-35050000D03*
X88275000Y-35050000D03*
X66075000Y-35050000D03*
X69225000Y-35050000D03*
X47025000Y-35050000D03*
X50175000Y-35050000D03*
X218475000Y-35050000D03*
X221625000Y-35050000D03*
G36*
G01*
X106075000Y-108474999D02*
X106075000Y-109375001D01*
G75*
G02*
X105825001Y-109625000I-249999J0D01*
G01*
X105174999Y-109625000D01*
G75*
G02*
X104925000Y-109375001I0J249999D01*
G01*
X104925000Y-108474999D01*
G75*
G02*
X105174999Y-108225000I249999J0D01*
G01*
X105825001Y-108225000D01*
G75*
G02*
X106075000Y-108474999I0J-249999D01*
G01*
G37*
G36*
G01*
X104025000Y-108474999D02*
X104025000Y-109375001D01*
G75*
G02*
X103775001Y-109625000I-249999J0D01*
G01*
X103124999Y-109625000D01*
G75*
G02*
X102875000Y-109375001I0J249999D01*
G01*
X102875000Y-108474999D01*
G75*
G02*
X103124999Y-108225000I249999J0D01*
G01*
X103775001Y-108225000D01*
G75*
G02*
X104025000Y-108474999I0J-249999D01*
G01*
G37*
G36*
G01*
X104025000Y-100624999D02*
X104025000Y-101525001D01*
G75*
G02*
X103775001Y-101775000I-249999J0D01*
G01*
X103124999Y-101775000D01*
G75*
G02*
X102875000Y-101525001I0J249999D01*
G01*
X102875000Y-100624999D01*
G75*
G02*
X103124999Y-100375000I249999J0D01*
G01*
X103775001Y-100375000D01*
G75*
G02*
X104025000Y-100624999I0J-249999D01*
G01*
G37*
G36*
G01*
X106075000Y-100624999D02*
X106075000Y-101525001D01*
G75*
G02*
X105825001Y-101775000I-249999J0D01*
G01*
X105174999Y-101775000D01*
G75*
G02*
X104925000Y-101525001I0J249999D01*
G01*
X104925000Y-100624999D01*
G75*
G02*
X105174999Y-100375000I249999J0D01*
G01*
X105825001Y-100375000D01*
G75*
G02*
X106075000Y-100624999I0J-249999D01*
G01*
G37*
G36*
G01*
X131725000Y-100520001D02*
X131725000Y-99619999D01*
G75*
G02*
X131974999Y-99370000I249999J0D01*
G01*
X132625001Y-99370000D01*
G75*
G02*
X132875000Y-99619999I0J-249999D01*
G01*
X132875000Y-100520001D01*
G75*
G02*
X132625001Y-100770000I-249999J0D01*
G01*
X131974999Y-100770000D01*
G75*
G02*
X131725000Y-100520001I0J249999D01*
G01*
G37*
G36*
G01*
X129675000Y-100520001D02*
X129675000Y-99619999D01*
G75*
G02*
X129924999Y-99370000I249999J0D01*
G01*
X130575001Y-99370000D01*
G75*
G02*
X130825000Y-99619999I0J-249999D01*
G01*
X130825000Y-100520001D01*
G75*
G02*
X130575001Y-100770000I-249999J0D01*
G01*
X129924999Y-100770000D01*
G75*
G02*
X129675000Y-100520001I0J249999D01*
G01*
G37*
G36*
G01*
X113625000Y-95449999D02*
X113625000Y-96350001D01*
G75*
G02*
X113375001Y-96600000I-249999J0D01*
G01*
X112724999Y-96600000D01*
G75*
G02*
X112475000Y-96350001I0J249999D01*
G01*
X112475000Y-95449999D01*
G75*
G02*
X112724999Y-95200000I249999J0D01*
G01*
X113375001Y-95200000D01*
G75*
G02*
X113625000Y-95449999I0J-249999D01*
G01*
G37*
G36*
G01*
X111575000Y-95449999D02*
X111575000Y-96350001D01*
G75*
G02*
X111325001Y-96600000I-249999J0D01*
G01*
X110674999Y-96600000D01*
G75*
G02*
X110425000Y-96350001I0J249999D01*
G01*
X110425000Y-95449999D01*
G75*
G02*
X110674999Y-95200000I249999J0D01*
G01*
X111325001Y-95200000D01*
G75*
G02*
X111575000Y-95449999I0J-249999D01*
G01*
G37*
G36*
G01*
X131725000Y-112075001D02*
X131725000Y-111174999D01*
G75*
G02*
X131974999Y-110925000I249999J0D01*
G01*
X132625001Y-110925000D01*
G75*
G02*
X132875000Y-111174999I0J-249999D01*
G01*
X132875000Y-112075001D01*
G75*
G02*
X132625001Y-112325000I-249999J0D01*
G01*
X131974999Y-112325000D01*
G75*
G02*
X131725000Y-112075001I0J249999D01*
G01*
G37*
G36*
G01*
X129675000Y-112075001D02*
X129675000Y-111174999D01*
G75*
G02*
X129924999Y-110925000I249999J0D01*
G01*
X130575001Y-110925000D01*
G75*
G02*
X130825000Y-111174999I0J-249999D01*
G01*
X130825000Y-112075001D01*
G75*
G02*
X130575001Y-112325000I-249999J0D01*
G01*
X129924999Y-112325000D01*
G75*
G02*
X129675000Y-112075001I0J249999D01*
G01*
G37*
G36*
G01*
X129675000Y-108650001D02*
X129675000Y-107749999D01*
G75*
G02*
X129924999Y-107500000I249999J0D01*
G01*
X130575001Y-107500000D01*
G75*
G02*
X130825000Y-107749999I0J-249999D01*
G01*
X130825000Y-108650001D01*
G75*
G02*
X130575001Y-108900000I-249999J0D01*
G01*
X129924999Y-108900000D01*
G75*
G02*
X129675000Y-108650001I0J249999D01*
G01*
G37*
G36*
G01*
X131725000Y-108650001D02*
X131725000Y-107749999D01*
G75*
G02*
X131974999Y-107500000I249999J0D01*
G01*
X132625001Y-107500000D01*
G75*
G02*
X132875000Y-107749999I0J-249999D01*
G01*
X132875000Y-108650001D01*
G75*
G02*
X132625001Y-108900000I-249999J0D01*
G01*
X131974999Y-108900000D01*
G75*
G02*
X131725000Y-108650001I0J249999D01*
G01*
G37*
G36*
G01*
X93145001Y-106570000D02*
X92244999Y-106570000D01*
G75*
G02*
X91995000Y-106320001I0J249999D01*
G01*
X91995000Y-105669999D01*
G75*
G02*
X92244999Y-105420000I249999J0D01*
G01*
X93145001Y-105420000D01*
G75*
G02*
X93395000Y-105669999I0J-249999D01*
G01*
X93395000Y-106320001D01*
G75*
G02*
X93145001Y-106570000I-249999J0D01*
G01*
G37*
G36*
G01*
X93145001Y-108620000D02*
X92244999Y-108620000D01*
G75*
G02*
X91995000Y-108370001I0J249999D01*
G01*
X91995000Y-107719999D01*
G75*
G02*
X92244999Y-107470000I249999J0D01*
G01*
X93145001Y-107470000D01*
G75*
G02*
X93395000Y-107719999I0J-249999D01*
G01*
X93395000Y-108370001D01*
G75*
G02*
X93145001Y-108620000I-249999J0D01*
G01*
G37*
G36*
G01*
X108675000Y-111174999D02*
X108675000Y-112075001D01*
G75*
G02*
X108425001Y-112325000I-249999J0D01*
G01*
X107774999Y-112325000D01*
G75*
G02*
X107525000Y-112075001I0J249999D01*
G01*
X107525000Y-111174999D01*
G75*
G02*
X107774999Y-110925000I249999J0D01*
G01*
X108425001Y-110925000D01*
G75*
G02*
X108675000Y-111174999I0J-249999D01*
G01*
G37*
G36*
G01*
X110725000Y-111174999D02*
X110725000Y-112075001D01*
G75*
G02*
X110475001Y-112325000I-249999J0D01*
G01*
X109824999Y-112325000D01*
G75*
G02*
X109575000Y-112075001I0J249999D01*
G01*
X109575000Y-111174999D01*
G75*
G02*
X109824999Y-110925000I249999J0D01*
G01*
X110475001Y-110925000D01*
G75*
G02*
X110725000Y-111174999I0J-249999D01*
G01*
G37*
D13*
X41395000Y-21550000D03*
X36045000Y-21550000D03*
D14*
X37120000Y-26750000D03*
X37920000Y-26750000D03*
X38720000Y-26750000D03*
X39520000Y-26750000D03*
X40320000Y-26750000D03*
D15*
X35070000Y-24350000D03*
X42370000Y-24350000D03*
G36*
G01*
X51325000Y-62900001D02*
X51325000Y-61999999D01*
G75*
G02*
X51574999Y-61750000I249999J0D01*
G01*
X52225001Y-61750000D01*
G75*
G02*
X52475000Y-61999999I0J-249999D01*
G01*
X52475000Y-62900001D01*
G75*
G02*
X52225001Y-63150000I-249999J0D01*
G01*
X51574999Y-63150000D01*
G75*
G02*
X51325000Y-62900001I0J249999D01*
G01*
G37*
G36*
G01*
X53375000Y-62900001D02*
X53375000Y-61999999D01*
G75*
G02*
X53624999Y-61750000I249999J0D01*
G01*
X54275001Y-61750000D01*
G75*
G02*
X54525000Y-61999999I0J-249999D01*
G01*
X54525000Y-62900001D01*
G75*
G02*
X54275001Y-63150000I-249999J0D01*
G01*
X53624999Y-63150000D01*
G75*
G02*
X53375000Y-62900001I0J249999D01*
G01*
G37*
G36*
G01*
X130825000Y-96819999D02*
X130825000Y-97720001D01*
G75*
G02*
X130575001Y-97970000I-249999J0D01*
G01*
X129924999Y-97970000D01*
G75*
G02*
X129675000Y-97720001I0J249999D01*
G01*
X129675000Y-96819999D01*
G75*
G02*
X129924999Y-96570000I249999J0D01*
G01*
X130575001Y-96570000D01*
G75*
G02*
X130825000Y-96819999I0J-249999D01*
G01*
G37*
G36*
G01*
X132875000Y-96819999D02*
X132875000Y-97720001D01*
G75*
G02*
X132625001Y-97970000I-249999J0D01*
G01*
X131974999Y-97970000D01*
G75*
G02*
X131725000Y-97720001I0J249999D01*
G01*
X131725000Y-96819999D01*
G75*
G02*
X131974999Y-96570000I249999J0D01*
G01*
X132625001Y-96570000D01*
G75*
G02*
X132875000Y-96819999I0J-249999D01*
G01*
G37*
G36*
G01*
X37545001Y-35050000D02*
X36644999Y-35050000D01*
G75*
G02*
X36395000Y-34800001I0J249999D01*
G01*
X36395000Y-34149999D01*
G75*
G02*
X36644999Y-33900000I249999J0D01*
G01*
X37545001Y-33900000D01*
G75*
G02*
X37795000Y-34149999I0J-249999D01*
G01*
X37795000Y-34800001D01*
G75*
G02*
X37545001Y-35050000I-249999J0D01*
G01*
G37*
G36*
G01*
X37545001Y-33000000D02*
X36644999Y-33000000D01*
G75*
G02*
X36395000Y-32750001I0J249999D01*
G01*
X36395000Y-32099999D01*
G75*
G02*
X36644999Y-31850000I249999J0D01*
G01*
X37545001Y-31850000D01*
G75*
G02*
X37795000Y-32099999I0J-249999D01*
G01*
X37795000Y-32750001D01*
G75*
G02*
X37545001Y-33000000I-249999J0D01*
G01*
G37*
G36*
G01*
X39995001Y-33000000D02*
X39094999Y-33000000D01*
G75*
G02*
X38845000Y-32750001I0J249999D01*
G01*
X38845000Y-32099999D01*
G75*
G02*
X39094999Y-31850000I249999J0D01*
G01*
X39995001Y-31850000D01*
G75*
G02*
X40245000Y-32099999I0J-249999D01*
G01*
X40245000Y-32750001D01*
G75*
G02*
X39995001Y-33000000I-249999J0D01*
G01*
G37*
G36*
G01*
X39995001Y-35050000D02*
X39094999Y-35050000D01*
G75*
G02*
X38845000Y-34800001I0J249999D01*
G01*
X38845000Y-34149999D01*
G75*
G02*
X39094999Y-33900000I249999J0D01*
G01*
X39995001Y-33900000D01*
G75*
G02*
X40245000Y-34149999I0J-249999D01*
G01*
X40245000Y-34800001D01*
G75*
G02*
X39995001Y-35050000I-249999J0D01*
G01*
G37*
D16*
X51900000Y-71800000D03*
X51900000Y-65500000D03*
X48100000Y-71800000D03*
X48100000Y-65500000D03*
D17*
G36*
X105906371Y-106389214D02*
G01*
X105057843Y-107237742D01*
X104067893Y-106247792D01*
X104916421Y-105399264D01*
X105906371Y-106389214D01*
G37*
G36*
X104350736Y-104833579D02*
G01*
X103502208Y-105682107D01*
X102512258Y-104692157D01*
X103360786Y-103843629D01*
X104350736Y-104833579D01*
G37*
G36*
X107037742Y-105257843D02*
G01*
X106189214Y-106106371D01*
X105199264Y-105116421D01*
X106047792Y-104267893D01*
X107037742Y-105257843D01*
G37*
G36*
X105482107Y-103702208D02*
G01*
X104633579Y-104550736D01*
X103643629Y-103560786D01*
X104492157Y-102712258D01*
X105482107Y-103702208D01*
G37*
D12*
X152525000Y-111250000D03*
X149375000Y-111250000D03*
M02*
