G04 #@! TF.GenerationSoftware,KiCad,Pcbnew,(5.1.9-1-g591a07d2d9)-1*
G04 #@! TF.CreationDate,2021-07-12T22:14:49-06:00*
G04 #@! TF.ProjectId,keyboard-layout,6b657962-6f61-4726-942d-6c61796f7574,rev?*
G04 #@! TF.SameCoordinates,Original*
G04 #@! TF.FileFunction,Soldermask,Bot*
G04 #@! TF.FilePolarity,Negative*
%FSLAX46Y46*%
G04 Gerber Fmt 4.6, Leading zero omitted, Abs format (unit mm)*
G04 Created by KiCad (PCBNEW (5.1.9-1-g591a07d2d9)-1) date 2021-07-12 22:14:49*
%MOMM*%
%LPD*%
G01*
G04 APERTURE LIST*
%ADD10C,1.750000*%
%ADD11C,2.250000*%
%ADD12C,3.987800*%
%ADD13C,3.048000*%
%ADD14R,0.550000X1.500000*%
%ADD15R,1.500000X0.550000*%
%ADD16C,1.600000*%
%ADD17R,1.600000X1.600000*%
%ADD18R,1.200000X1.200000*%
%ADD19R,2.350000X0.800000*%
%ADD20R,0.500000X1.400000*%
%ADD21O,1.500000X4.000000*%
%ADD22R,1.000000X1.700000*%
%ADD23C,0.100000*%
%ADD24C,5.500000*%
G04 APERTURE END LIST*
D10*
X158430000Y-48575000D03*
X148270000Y-48575000D03*
D11*
X150850000Y-44575000D03*
D12*
X153350000Y-48575000D03*
G36*
G01*
X148788688Y-46872350D02*
X148788683Y-46872345D01*
G75*
G02*
X148702655Y-45283683I751317J837345D01*
G01*
X150012657Y-43823683D01*
G75*
G02*
X151601319Y-43737655I837345J-751317D01*
G01*
X151601319Y-43737655D01*
G75*
G02*
X151687347Y-45326317I-751317J-837345D01*
G01*
X150377345Y-46786317D01*
G75*
G02*
X148788683Y-46872345I-837345J751317D01*
G01*
G37*
D11*
X155890000Y-43495000D03*
G36*
G01*
X155773483Y-45197395D02*
X155772597Y-45197334D01*
G75*
G02*
X154727666Y-43997597I77403J1122334D01*
G01*
X154767666Y-43417597D01*
G75*
G02*
X155967403Y-42372666I1122334J-77403D01*
G01*
X155967403Y-42372666D01*
G75*
G02*
X157012334Y-43572403I-77403J-1122334D01*
G01*
X156972334Y-44152403D01*
G75*
G02*
X155772597Y-45197334I-1122334J77403D01*
G01*
G37*
D12*
X200969488Y-97470000D03*
X100969688Y-97470000D03*
D13*
X200969488Y-112710000D03*
X100969688Y-112710000D03*
D10*
X156049588Y-105725000D03*
X145889588Y-105725000D03*
D11*
X148469588Y-101725000D03*
D12*
X150969588Y-105725000D03*
G36*
G01*
X146408276Y-104022350D02*
X146408271Y-104022345D01*
G75*
G02*
X146322243Y-102433683I751317J837345D01*
G01*
X147632245Y-100973683D01*
G75*
G02*
X149220907Y-100887655I837345J-751317D01*
G01*
X149220907Y-100887655D01*
G75*
G02*
X149306935Y-102476317I-751317J-837345D01*
G01*
X147996933Y-103936317D01*
G75*
G02*
X146408271Y-104022345I-837345J751317D01*
G01*
G37*
D11*
X153509588Y-100645000D03*
G36*
G01*
X153393071Y-102347395D02*
X153392185Y-102347334D01*
G75*
G02*
X152347254Y-101147597I77403J1122334D01*
G01*
X152387254Y-100567597D01*
G75*
G02*
X153586991Y-99522666I1122334J-77403D01*
G01*
X153586991Y-99522666D01*
G75*
G02*
X154631922Y-100722403I-77403J-1122334D01*
G01*
X154591922Y-101302403D01*
G75*
G02*
X153392185Y-102347334I-1122334J77403D01*
G01*
G37*
D10*
X84611250Y-105725000D03*
X74451250Y-105725000D03*
D11*
X77031250Y-101725000D03*
D12*
X79531250Y-105725000D03*
G36*
G01*
X74969938Y-104022350D02*
X74969933Y-104022345D01*
G75*
G02*
X74883905Y-102433683I751317J837345D01*
G01*
X76193907Y-100973683D01*
G75*
G02*
X77782569Y-100887655I837345J-751317D01*
G01*
X77782569Y-100887655D01*
G75*
G02*
X77868597Y-102476317I-751317J-837345D01*
G01*
X76558595Y-103936317D01*
G75*
G02*
X74969933Y-104022345I-837345J751317D01*
G01*
G37*
D11*
X82071250Y-100645000D03*
G36*
G01*
X81954733Y-102347395D02*
X81953847Y-102347334D01*
G75*
G02*
X80908916Y-101147597I77403J1122334D01*
G01*
X80948916Y-100567597D01*
G75*
G02*
X82148653Y-99522666I1122334J-77403D01*
G01*
X82148653Y-99522666D01*
G75*
G02*
X83193584Y-100722403I-77403J-1122334D01*
G01*
X83153584Y-101302403D01*
G75*
G02*
X81953847Y-102347334I-1122334J77403D01*
G01*
G37*
D14*
X122425000Y-110625000D03*
X121625000Y-110625000D03*
X120825000Y-110625000D03*
X120025000Y-110625000D03*
X119225000Y-110625000D03*
X118425000Y-110625000D03*
X117625000Y-110625000D03*
X116825000Y-110625000D03*
X116025000Y-110625000D03*
X115225000Y-110625000D03*
X114425000Y-110625000D03*
D15*
X112725000Y-108925000D03*
X112725000Y-108125000D03*
X112725000Y-107325000D03*
X112725000Y-106525000D03*
X112725000Y-105725000D03*
X112725000Y-104925000D03*
X112725000Y-104125000D03*
X112725000Y-103325000D03*
X112725000Y-102525000D03*
X112725000Y-101725000D03*
X112725000Y-100925000D03*
D14*
X114425000Y-99225000D03*
X115225000Y-99225000D03*
X116025000Y-99225000D03*
X116825000Y-99225000D03*
X117625000Y-99225000D03*
X118425000Y-99225000D03*
X119225000Y-99225000D03*
X120025000Y-99225000D03*
X120825000Y-99225000D03*
X121625000Y-99225000D03*
X122425000Y-99225000D03*
D15*
X124125000Y-100925000D03*
X124125000Y-101725000D03*
X124125000Y-102525000D03*
X124125000Y-103325000D03*
X124125000Y-104125000D03*
X124125000Y-104925000D03*
X124125000Y-105725000D03*
X124125000Y-106525000D03*
X124125000Y-107325000D03*
X124125000Y-108125000D03*
X124125000Y-108925000D03*
D12*
X53369250Y-94930000D03*
X29493250Y-94930000D03*
D13*
X53369250Y-79690000D03*
X29493250Y-79690000D03*
D10*
X46511250Y-86675000D03*
X36351250Y-86675000D03*
D11*
X38931250Y-82675000D03*
D12*
X41431250Y-86675000D03*
G36*
G01*
X36869938Y-84972350D02*
X36869933Y-84972345D01*
G75*
G02*
X36783905Y-83383683I751317J837345D01*
G01*
X38093907Y-81923683D01*
G75*
G02*
X39682569Y-81837655I837345J-751317D01*
G01*
X39682569Y-81837655D01*
G75*
G02*
X39768597Y-83426317I-751317J-837345D01*
G01*
X38458595Y-84886317D01*
G75*
G02*
X36869933Y-84972345I-837345J751317D01*
G01*
G37*
D11*
X43971250Y-81595000D03*
G36*
G01*
X43854733Y-83297395D02*
X43853847Y-83297334D01*
G75*
G02*
X42808916Y-82097597I77403J1122334D01*
G01*
X42848916Y-81517597D01*
G75*
G02*
X44048653Y-80472666I1122334J-77403D01*
G01*
X44048653Y-80472666D01*
G75*
G02*
X45093584Y-81672403I-77403J-1122334D01*
G01*
X45053584Y-82252403D01*
G75*
G02*
X43853847Y-83297334I-1122334J77403D01*
G01*
G37*
D10*
X272730000Y-48575000D03*
X262570000Y-48575000D03*
D11*
X265150000Y-44575000D03*
D12*
X267650000Y-48575000D03*
G36*
G01*
X263088688Y-46872350D02*
X263088683Y-46872345D01*
G75*
G02*
X263002655Y-45283683I751317J837345D01*
G01*
X264312657Y-43823683D01*
G75*
G02*
X265901319Y-43737655I837345J-751317D01*
G01*
X265901319Y-43737655D01*
G75*
G02*
X265987347Y-45326317I-751317J-837345D01*
G01*
X264677345Y-46786317D01*
G75*
G02*
X263088683Y-46872345I-837345J751317D01*
G01*
G37*
D11*
X270190000Y-43495000D03*
G36*
G01*
X270073483Y-45197395D02*
X270072597Y-45197334D01*
G75*
G02*
X269027666Y-43997597I77403J1122334D01*
G01*
X269067666Y-43417597D01*
G75*
G02*
X270267403Y-42372666I1122334J-77403D01*
G01*
X270267403Y-42372666D01*
G75*
G02*
X271312334Y-43572403I-77403J-1122334D01*
G01*
X271272334Y-44152403D01*
G75*
G02*
X270072597Y-45197334I-1122334J77403D01*
G01*
G37*
D10*
X96517500Y-86675000D03*
X86357500Y-86675000D03*
D11*
X88937500Y-82675000D03*
D12*
X91437500Y-86675000D03*
G36*
G01*
X86876188Y-84972350D02*
X86876183Y-84972345D01*
G75*
G02*
X86790155Y-83383683I751317J837345D01*
G01*
X88100157Y-81923683D01*
G75*
G02*
X89688819Y-81837655I837345J-751317D01*
G01*
X89688819Y-81837655D01*
G75*
G02*
X89774847Y-83426317I-751317J-837345D01*
G01*
X88464845Y-84886317D01*
G75*
G02*
X86876183Y-84972345I-837345J751317D01*
G01*
G37*
D11*
X93977500Y-81595000D03*
G36*
G01*
X93860983Y-83297395D02*
X93860097Y-83297334D01*
G75*
G02*
X92815166Y-82097597I77403J1122334D01*
G01*
X92855166Y-81517597D01*
G75*
G02*
X94054903Y-80472666I1122334J-77403D01*
G01*
X94054903Y-80472666D01*
G75*
G02*
X95099834Y-81672403I-77403J-1122334D01*
G01*
X95059834Y-82252403D01*
G75*
G02*
X93860097Y-83297334I-1122334J77403D01*
G01*
G37*
D10*
X63180000Y-48575000D03*
X53020000Y-48575000D03*
D11*
X55600000Y-44575000D03*
D12*
X58100000Y-48575000D03*
G36*
G01*
X53538688Y-46872350D02*
X53538683Y-46872345D01*
G75*
G02*
X53452655Y-45283683I751317J837345D01*
G01*
X54762657Y-43823683D01*
G75*
G02*
X56351319Y-43737655I837345J-751317D01*
G01*
X56351319Y-43737655D01*
G75*
G02*
X56437347Y-45326317I-751317J-837345D01*
G01*
X55127345Y-46786317D01*
G75*
G02*
X53538683Y-46872345I-837345J751317D01*
G01*
G37*
D11*
X60640000Y-43495000D03*
G36*
G01*
X60523483Y-45197395D02*
X60522597Y-45197334D01*
G75*
G02*
X59477666Y-43997597I77403J1122334D01*
G01*
X59517666Y-43417597D01*
G75*
G02*
X60717403Y-42372666I1122334J-77403D01*
G01*
X60717403Y-42372666D01*
G75*
G02*
X61762334Y-43572403I-77403J-1122334D01*
G01*
X61722334Y-44152403D01*
G75*
G02*
X60522597Y-45197334I-1122334J77403D01*
G01*
G37*
D10*
X34605000Y-29525000D03*
X24445000Y-29525000D03*
D11*
X27025000Y-25525000D03*
D12*
X29525000Y-29525000D03*
G36*
G01*
X24963688Y-27822350D02*
X24963683Y-27822345D01*
G75*
G02*
X24877655Y-26233683I751317J837345D01*
G01*
X26187657Y-24773683D01*
G75*
G02*
X27776319Y-24687655I837345J-751317D01*
G01*
X27776319Y-24687655D01*
G75*
G02*
X27862347Y-26276317I-751317J-837345D01*
G01*
X26552345Y-27736317D01*
G75*
G02*
X24963683Y-27822345I-837345J751317D01*
G01*
G37*
D11*
X32065000Y-24445000D03*
G36*
G01*
X31948483Y-26147395D02*
X31947597Y-26147334D01*
G75*
G02*
X30902666Y-24947597I77403J1122334D01*
G01*
X30942666Y-24367597D01*
G75*
G02*
X32142403Y-23322666I1122334J-77403D01*
G01*
X32142403Y-23322666D01*
G75*
G02*
X33187334Y-24522403I-77403J-1122334D01*
G01*
X33147334Y-25102403D01*
G75*
G02*
X31947597Y-26147334I-1122334J77403D01*
G01*
G37*
D10*
X296542500Y-48575000D03*
X286382500Y-48575000D03*
D11*
X288962500Y-44575000D03*
D12*
X291462500Y-48575000D03*
G36*
G01*
X286901188Y-46872350D02*
X286901183Y-46872345D01*
G75*
G02*
X286815155Y-45283683I751317J837345D01*
G01*
X288125157Y-43823683D01*
G75*
G02*
X289713819Y-43737655I837345J-751317D01*
G01*
X289713819Y-43737655D01*
G75*
G02*
X289799847Y-45326317I-751317J-837345D01*
G01*
X288489845Y-46786317D01*
G75*
G02*
X286901183Y-46872345I-837345J751317D01*
G01*
G37*
D11*
X294002500Y-43495000D03*
G36*
G01*
X293885983Y-45197395D02*
X293885097Y-45197334D01*
G75*
G02*
X292840166Y-43997597I77403J1122334D01*
G01*
X292880166Y-43417597D01*
G75*
G02*
X294079903Y-42372666I1122334J-77403D01*
G01*
X294079903Y-42372666D01*
G75*
G02*
X295124834Y-43572403I-77403J-1122334D01*
G01*
X295084834Y-44152403D01*
G75*
G02*
X293885097Y-45197334I-1122334J77403D01*
G01*
G37*
D10*
X115567500Y-86675000D03*
X105407500Y-86675000D03*
D11*
X107987500Y-82675000D03*
D12*
X110487500Y-86675000D03*
G36*
G01*
X105926188Y-84972350D02*
X105926183Y-84972345D01*
G75*
G02*
X105840155Y-83383683I751317J837345D01*
G01*
X107150157Y-81923683D01*
G75*
G02*
X108738819Y-81837655I837345J-751317D01*
G01*
X108738819Y-81837655D01*
G75*
G02*
X108824847Y-83426317I-751317J-837345D01*
G01*
X107514845Y-84886317D01*
G75*
G02*
X105926183Y-84972345I-837345J751317D01*
G01*
G37*
D11*
X113027500Y-81595000D03*
G36*
G01*
X112910983Y-83297395D02*
X112910097Y-83297334D01*
G75*
G02*
X111865166Y-82097597I77403J1122334D01*
G01*
X111905166Y-81517597D01*
G75*
G02*
X113104903Y-80472666I1122334J-77403D01*
G01*
X113104903Y-80472666D01*
G75*
G02*
X114149834Y-81672403I-77403J-1122334D01*
G01*
X114109834Y-82252403D01*
G75*
G02*
X112910097Y-83297334I-1122334J77403D01*
G01*
G37*
D16*
X83450000Y-111250000D03*
D17*
X75650000Y-111250000D03*
D18*
X77975000Y-111250000D03*
X81125000Y-111250000D03*
D10*
X82230000Y-48575000D03*
X72070000Y-48575000D03*
D11*
X74650000Y-44575000D03*
D12*
X77150000Y-48575000D03*
G36*
G01*
X72588688Y-46872350D02*
X72588683Y-46872345D01*
G75*
G02*
X72502655Y-45283683I751317J837345D01*
G01*
X73812657Y-43823683D01*
G75*
G02*
X75401319Y-43737655I837345J-751317D01*
G01*
X75401319Y-43737655D01*
G75*
G02*
X75487347Y-45326317I-751317J-837345D01*
G01*
X74177345Y-46786317D01*
G75*
G02*
X72588683Y-46872345I-837345J751317D01*
G01*
G37*
D11*
X79690000Y-43495000D03*
G36*
G01*
X79573483Y-45197395D02*
X79572597Y-45197334D01*
G75*
G02*
X78527666Y-43997597I77403J1122334D01*
G01*
X78567666Y-43417597D01*
G75*
G02*
X79767403Y-42372666I1122334J-77403D01*
G01*
X79767403Y-42372666D01*
G75*
G02*
X80812334Y-43572403I-77403J-1122334D01*
G01*
X80772334Y-44152403D01*
G75*
G02*
X79572597Y-45197334I-1122334J77403D01*
G01*
G37*
D10*
X225105000Y-29525000D03*
X214945000Y-29525000D03*
D11*
X217525000Y-25525000D03*
D12*
X220025000Y-29525000D03*
G36*
G01*
X215463688Y-27822350D02*
X215463683Y-27822345D01*
G75*
G02*
X215377655Y-26233683I751317J837345D01*
G01*
X216687657Y-24773683D01*
G75*
G02*
X218276319Y-24687655I837345J-751317D01*
G01*
X218276319Y-24687655D01*
G75*
G02*
X218362347Y-26276317I-751317J-837345D01*
G01*
X217052345Y-27736317D01*
G75*
G02*
X215463683Y-27822345I-837345J751317D01*
G01*
G37*
D11*
X222565000Y-24445000D03*
G36*
G01*
X222448483Y-26147395D02*
X222447597Y-26147334D01*
G75*
G02*
X221402666Y-24947597I77403J1122334D01*
G01*
X221442666Y-24367597D01*
G75*
G02*
X222642403Y-23322666I1122334J-77403D01*
G01*
X222642403Y-23322666D01*
G75*
G02*
X223687334Y-24522403I-77403J-1122334D01*
G01*
X223647334Y-25102403D01*
G75*
G02*
X222447597Y-26147334I-1122334J77403D01*
G01*
G37*
D10*
X196530000Y-48575000D03*
X186370000Y-48575000D03*
D11*
X188950000Y-44575000D03*
D12*
X191450000Y-48575000D03*
G36*
G01*
X186888688Y-46872350D02*
X186888683Y-46872345D01*
G75*
G02*
X186802655Y-45283683I751317J837345D01*
G01*
X188112657Y-43823683D01*
G75*
G02*
X189701319Y-43737655I837345J-751317D01*
G01*
X189701319Y-43737655D01*
G75*
G02*
X189787347Y-45326317I-751317J-837345D01*
G01*
X188477345Y-46786317D01*
G75*
G02*
X186888683Y-46872345I-837345J751317D01*
G01*
G37*
D11*
X193990000Y-43495000D03*
G36*
G01*
X193873483Y-45197395D02*
X193872597Y-45197334D01*
G75*
G02*
X192827666Y-43997597I77403J1122334D01*
G01*
X192867666Y-43417597D01*
G75*
G02*
X194067403Y-42372666I1122334J-77403D01*
G01*
X194067403Y-42372666D01*
G75*
G02*
X195112334Y-43572403I-77403J-1122334D01*
G01*
X195072334Y-44152403D01*
G75*
G02*
X193872597Y-45197334I-1122334J77403D01*
G01*
G37*
D10*
X39367500Y-48575000D03*
X29207500Y-48575000D03*
D11*
X31787500Y-44575000D03*
D12*
X34287500Y-48575000D03*
G36*
G01*
X29726188Y-46872350D02*
X29726183Y-46872345D01*
G75*
G02*
X29640155Y-45283683I751317J837345D01*
G01*
X30950157Y-43823683D01*
G75*
G02*
X32538819Y-43737655I837345J-751317D01*
G01*
X32538819Y-43737655D01*
G75*
G02*
X32624847Y-45326317I-751317J-837345D01*
G01*
X31314845Y-46786317D01*
G75*
G02*
X29726183Y-46872345I-837345J751317D01*
G01*
G37*
D11*
X36827500Y-43495000D03*
G36*
G01*
X36710983Y-45197395D02*
X36710097Y-45197334D01*
G75*
G02*
X35665166Y-43997597I77403J1122334D01*
G01*
X35705166Y-43417597D01*
G75*
G02*
X36904903Y-42372666I1122334J-77403D01*
G01*
X36904903Y-42372666D01*
G75*
G02*
X37949834Y-43572403I-77403J-1122334D01*
G01*
X37909834Y-44152403D01*
G75*
G02*
X36710097Y-45197334I-1122334J77403D01*
G01*
G37*
D10*
X77467500Y-86675000D03*
X67307500Y-86675000D03*
D11*
X69887500Y-82675000D03*
D12*
X72387500Y-86675000D03*
G36*
G01*
X67826188Y-84972350D02*
X67826183Y-84972345D01*
G75*
G02*
X67740155Y-83383683I751317J837345D01*
G01*
X69050157Y-81923683D01*
G75*
G02*
X70638819Y-81837655I837345J-751317D01*
G01*
X70638819Y-81837655D01*
G75*
G02*
X70724847Y-83426317I-751317J-837345D01*
G01*
X69414845Y-84886317D01*
G75*
G02*
X67826183Y-84972345I-837345J751317D01*
G01*
G37*
D11*
X74927500Y-81595000D03*
G36*
G01*
X74810983Y-83297395D02*
X74810097Y-83297334D01*
G75*
G02*
X73765166Y-82097597I77403J1122334D01*
G01*
X73805166Y-81517597D01*
G75*
G02*
X75004903Y-80472666I1122334J-77403D01*
G01*
X75004903Y-80472666D01*
G75*
G02*
X76049834Y-81672403I-77403J-1122334D01*
G01*
X76009834Y-82252403D01*
G75*
G02*
X74810097Y-83297334I-1122334J77403D01*
G01*
G37*
D10*
X60798750Y-105725000D03*
X50638750Y-105725000D03*
D11*
X53218750Y-101725000D03*
D12*
X55718750Y-105725000D03*
G36*
G01*
X51157438Y-104022350D02*
X51157433Y-104022345D01*
G75*
G02*
X51071405Y-102433683I751317J837345D01*
G01*
X52381407Y-100973683D01*
G75*
G02*
X53970069Y-100887655I837345J-751317D01*
G01*
X53970069Y-100887655D01*
G75*
G02*
X54056097Y-102476317I-751317J-837345D01*
G01*
X52746095Y-103936317D01*
G75*
G02*
X51157433Y-104022345I-837345J751317D01*
G01*
G37*
D11*
X58258750Y-100645000D03*
G36*
G01*
X58142233Y-102347395D02*
X58141347Y-102347334D01*
G75*
G02*
X57096416Y-101147597I77403J1122334D01*
G01*
X57136416Y-100567597D01*
G75*
G02*
X58336153Y-99522666I1122334J-77403D01*
G01*
X58336153Y-99522666D01*
G75*
G02*
X59381084Y-100722403I-77403J-1122334D01*
G01*
X59341084Y-101302403D01*
G75*
G02*
X58141347Y-102347334I-1122334J77403D01*
G01*
G37*
D10*
X134617500Y-86675000D03*
X124457500Y-86675000D03*
D11*
X127037500Y-82675000D03*
D12*
X129537500Y-86675000D03*
G36*
G01*
X124976188Y-84972350D02*
X124976183Y-84972345D01*
G75*
G02*
X124890155Y-83383683I751317J837345D01*
G01*
X126200157Y-81923683D01*
G75*
G02*
X127788819Y-81837655I837345J-751317D01*
G01*
X127788819Y-81837655D01*
G75*
G02*
X127874847Y-83426317I-751317J-837345D01*
G01*
X126564845Y-84886317D01*
G75*
G02*
X124976183Y-84972345I-837345J751317D01*
G01*
G37*
D11*
X132077500Y-81595000D03*
G36*
G01*
X131960983Y-83297395D02*
X131960097Y-83297334D01*
G75*
G02*
X130915166Y-82097597I77403J1122334D01*
G01*
X130955166Y-81517597D01*
G75*
G02*
X132154903Y-80472666I1122334J-77403D01*
G01*
X132154903Y-80472666D01*
G75*
G02*
X133199834Y-81672403I-77403J-1122334D01*
G01*
X133159834Y-82252403D01*
G75*
G02*
X131960097Y-83297334I-1122334J77403D01*
G01*
G37*
D10*
X301305000Y-86675000D03*
X291145000Y-86675000D03*
D11*
X293725000Y-82675000D03*
D12*
X296225000Y-86675000D03*
G36*
G01*
X291663688Y-84972350D02*
X291663683Y-84972345D01*
G75*
G02*
X291577655Y-83383683I751317J837345D01*
G01*
X292887657Y-81923683D01*
G75*
G02*
X294476319Y-81837655I837345J-751317D01*
G01*
X294476319Y-81837655D01*
G75*
G02*
X294562347Y-83426317I-751317J-837345D01*
G01*
X293252345Y-84886317D01*
G75*
G02*
X291663683Y-84972345I-837345J751317D01*
G01*
G37*
D11*
X298765000Y-81595000D03*
G36*
G01*
X298648483Y-83297395D02*
X298647597Y-83297334D01*
G75*
G02*
X297602666Y-82097597I77403J1122334D01*
G01*
X297642666Y-81517597D01*
G75*
G02*
X298842403Y-80472666I1122334J-77403D01*
G01*
X298842403Y-80472666D01*
G75*
G02*
X299887334Y-81672403I-77403J-1122334D01*
G01*
X299847334Y-82252403D01*
G75*
G02*
X298647597Y-83297334I-1122334J77403D01*
G01*
G37*
D10*
X177480000Y-48575000D03*
X167320000Y-48575000D03*
D11*
X169900000Y-44575000D03*
D12*
X172400000Y-48575000D03*
G36*
G01*
X167838688Y-46872350D02*
X167838683Y-46872345D01*
G75*
G02*
X167752655Y-45283683I751317J837345D01*
G01*
X169062657Y-43823683D01*
G75*
G02*
X170651319Y-43737655I837345J-751317D01*
G01*
X170651319Y-43737655D01*
G75*
G02*
X170737347Y-45326317I-751317J-837345D01*
G01*
X169427345Y-46786317D01*
G75*
G02*
X167838683Y-46872345I-837345J751317D01*
G01*
G37*
D11*
X174940000Y-43495000D03*
G36*
G01*
X174823483Y-45197395D02*
X174822597Y-45197334D01*
G75*
G02*
X173777666Y-43997597I77403J1122334D01*
G01*
X173817666Y-43417597D01*
G75*
G02*
X175017403Y-42372666I1122334J-77403D01*
G01*
X175017403Y-42372666D01*
G75*
G02*
X176062334Y-43572403I-77403J-1122334D01*
G01*
X176022334Y-44152403D01*
G75*
G02*
X174822597Y-45197334I-1122334J77403D01*
G01*
G37*
D10*
X139380000Y-48575000D03*
X129220000Y-48575000D03*
D11*
X131800000Y-44575000D03*
D12*
X134300000Y-48575000D03*
G36*
G01*
X129738688Y-46872350D02*
X129738683Y-46872345D01*
G75*
G02*
X129652655Y-45283683I751317J837345D01*
G01*
X130962657Y-43823683D01*
G75*
G02*
X132551319Y-43737655I837345J-751317D01*
G01*
X132551319Y-43737655D01*
G75*
G02*
X132637347Y-45326317I-751317J-837345D01*
G01*
X131327345Y-46786317D01*
G75*
G02*
X129738683Y-46872345I-837345J751317D01*
G01*
G37*
D11*
X136840000Y-43495000D03*
G36*
G01*
X136723483Y-45197395D02*
X136722597Y-45197334D01*
G75*
G02*
X135677666Y-43997597I77403J1122334D01*
G01*
X135717666Y-43417597D01*
G75*
G02*
X136917403Y-42372666I1122334J-77403D01*
G01*
X136917403Y-42372666D01*
G75*
G02*
X137962334Y-43572403I-77403J-1122334D01*
G01*
X137922334Y-44152403D01*
G75*
G02*
X136722597Y-45197334I-1122334J77403D01*
G01*
G37*
D10*
X248917500Y-86675000D03*
X238757500Y-86675000D03*
D11*
X241337500Y-82675000D03*
D12*
X243837500Y-86675000D03*
G36*
G01*
X239276188Y-84972350D02*
X239276183Y-84972345D01*
G75*
G02*
X239190155Y-83383683I751317J837345D01*
G01*
X240500157Y-81923683D01*
G75*
G02*
X242088819Y-81837655I837345J-751317D01*
G01*
X242088819Y-81837655D01*
G75*
G02*
X242174847Y-83426317I-751317J-837345D01*
G01*
X240864845Y-84886317D01*
G75*
G02*
X239276183Y-84972345I-837345J751317D01*
G01*
G37*
D11*
X246377500Y-81595000D03*
G36*
G01*
X246260983Y-83297395D02*
X246260097Y-83297334D01*
G75*
G02*
X245215166Y-82097597I77403J1122334D01*
G01*
X245255166Y-81517597D01*
G75*
G02*
X246454903Y-80472666I1122334J-77403D01*
G01*
X246454903Y-80472666D01*
G75*
G02*
X247499834Y-81672403I-77403J-1122334D01*
G01*
X247459834Y-82252403D01*
G75*
G02*
X246260097Y-83297334I-1122334J77403D01*
G01*
G37*
D10*
X275111250Y-86675000D03*
X264951250Y-86675000D03*
D11*
X267531250Y-82675000D03*
D12*
X270031250Y-86675000D03*
G36*
G01*
X265469938Y-84972350D02*
X265469933Y-84972345D01*
G75*
G02*
X265383905Y-83383683I751317J837345D01*
G01*
X266693907Y-81923683D01*
G75*
G02*
X268282569Y-81837655I837345J-751317D01*
G01*
X268282569Y-81837655D01*
G75*
G02*
X268368597Y-83426317I-751317J-837345D01*
G01*
X267058595Y-84886317D01*
G75*
G02*
X265469933Y-84972345I-837345J751317D01*
G01*
G37*
D11*
X272571250Y-81595000D03*
G36*
G01*
X272454733Y-83297395D02*
X272453847Y-83297334D01*
G75*
G02*
X271408916Y-82097597I77403J1122334D01*
G01*
X271448916Y-81517597D01*
G75*
G02*
X272648653Y-80472666I1122334J-77403D01*
G01*
X272648653Y-80472666D01*
G75*
G02*
X273693584Y-81672403I-77403J-1122334D01*
G01*
X273653584Y-82252403D01*
G75*
G02*
X272453847Y-83297334I-1122334J77403D01*
G01*
G37*
D10*
X239392500Y-67625000D03*
X229232500Y-67625000D03*
D11*
X231812500Y-63625000D03*
D12*
X234312500Y-67625000D03*
G36*
G01*
X229751188Y-65922350D02*
X229751183Y-65922345D01*
G75*
G02*
X229665155Y-64333683I751317J837345D01*
G01*
X230975157Y-62873683D01*
G75*
G02*
X232563819Y-62787655I837345J-751317D01*
G01*
X232563819Y-62787655D01*
G75*
G02*
X232649847Y-64376317I-751317J-837345D01*
G01*
X231339845Y-65836317D01*
G75*
G02*
X229751183Y-65922345I-837345J751317D01*
G01*
G37*
D11*
X236852500Y-62545000D03*
G36*
G01*
X236735983Y-64247395D02*
X236735097Y-64247334D01*
G75*
G02*
X235690166Y-63047597I77403J1122334D01*
G01*
X235730166Y-62467597D01*
G75*
G02*
X236929903Y-61422666I1122334J-77403D01*
G01*
X236929903Y-61422666D01*
G75*
G02*
X237974834Y-62622403I-77403J-1122334D01*
G01*
X237934834Y-63202403D01*
G75*
G02*
X236735097Y-64247334I-1122334J77403D01*
G01*
G37*
D10*
X86992500Y-67625000D03*
X76832500Y-67625000D03*
D11*
X79412500Y-63625000D03*
D12*
X81912500Y-67625000D03*
G36*
G01*
X77351188Y-65922350D02*
X77351183Y-65922345D01*
G75*
G02*
X77265155Y-64333683I751317J837345D01*
G01*
X78575157Y-62873683D01*
G75*
G02*
X80163819Y-62787655I837345J-751317D01*
G01*
X80163819Y-62787655D01*
G75*
G02*
X80249847Y-64376317I-751317J-837345D01*
G01*
X78939845Y-65836317D01*
G75*
G02*
X77351183Y-65922345I-837345J751317D01*
G01*
G37*
D11*
X84452500Y-62545000D03*
G36*
G01*
X84335983Y-64247395D02*
X84335097Y-64247334D01*
G75*
G02*
X83290166Y-63047597I77403J1122334D01*
G01*
X83330166Y-62467597D01*
G75*
G02*
X84529903Y-61422666I1122334J-77403D01*
G01*
X84529903Y-61422666D01*
G75*
G02*
X85574834Y-62622403I-77403J-1122334D01*
G01*
X85534834Y-63202403D01*
G75*
G02*
X84335097Y-64247334I-1122334J77403D01*
G01*
G37*
D10*
X320355000Y-105725000D03*
X310195000Y-105725000D03*
D11*
X312775000Y-101725000D03*
D12*
X315275000Y-105725000D03*
G36*
G01*
X310713688Y-104022350D02*
X310713683Y-104022345D01*
G75*
G02*
X310627655Y-102433683I751317J837345D01*
G01*
X311937657Y-100973683D01*
G75*
G02*
X313526319Y-100887655I837345J-751317D01*
G01*
X313526319Y-100887655D01*
G75*
G02*
X313612347Y-102476317I-751317J-837345D01*
G01*
X312302345Y-103936317D01*
G75*
G02*
X310713683Y-104022345I-837345J751317D01*
G01*
G37*
D11*
X317815000Y-100645000D03*
G36*
G01*
X317698483Y-102347395D02*
X317697597Y-102347334D01*
G75*
G02*
X316652666Y-101147597I77403J1122334D01*
G01*
X316692666Y-100567597D01*
G75*
G02*
X317892403Y-99522666I1122334J-77403D01*
G01*
X317892403Y-99522666D01*
G75*
G02*
X318937334Y-100722403I-77403J-1122334D01*
G01*
X318897334Y-101302403D01*
G75*
G02*
X317697597Y-102347334I-1122334J77403D01*
G01*
G37*
D10*
X120330000Y-48575000D03*
X110170000Y-48575000D03*
D11*
X112750000Y-44575000D03*
D12*
X115250000Y-48575000D03*
G36*
G01*
X110688688Y-46872350D02*
X110688683Y-46872345D01*
G75*
G02*
X110602655Y-45283683I751317J837345D01*
G01*
X111912657Y-43823683D01*
G75*
G02*
X113501319Y-43737655I837345J-751317D01*
G01*
X113501319Y-43737655D01*
G75*
G02*
X113587347Y-45326317I-751317J-837345D01*
G01*
X112277345Y-46786317D01*
G75*
G02*
X110688683Y-46872345I-837345J751317D01*
G01*
G37*
D11*
X117790000Y-43495000D03*
G36*
G01*
X117673483Y-45197395D02*
X117672597Y-45197334D01*
G75*
G02*
X116627666Y-43997597I77403J1122334D01*
G01*
X116667666Y-43417597D01*
G75*
G02*
X117867403Y-42372666I1122334J-77403D01*
G01*
X117867403Y-42372666D01*
G75*
G02*
X118912334Y-43572403I-77403J-1122334D01*
G01*
X118872334Y-44152403D01*
G75*
G02*
X117672597Y-45197334I-1122334J77403D01*
G01*
G37*
D10*
X258442500Y-67625000D03*
X248282500Y-67625000D03*
D11*
X250862500Y-63625000D03*
D12*
X253362500Y-67625000D03*
G36*
G01*
X248801188Y-65922350D02*
X248801183Y-65922345D01*
G75*
G02*
X248715155Y-64333683I751317J837345D01*
G01*
X250025157Y-62873683D01*
G75*
G02*
X251613819Y-62787655I837345J-751317D01*
G01*
X251613819Y-62787655D01*
G75*
G02*
X251699847Y-64376317I-751317J-837345D01*
G01*
X250389845Y-65836317D01*
G75*
G02*
X248801183Y-65922345I-837345J751317D01*
G01*
G37*
D11*
X255902500Y-62545000D03*
G36*
G01*
X255785983Y-64247395D02*
X255785097Y-64247334D01*
G75*
G02*
X254740166Y-63047597I77403J1122334D01*
G01*
X254780166Y-62467597D01*
G75*
G02*
X255979903Y-61422666I1122334J-77403D01*
G01*
X255979903Y-61422666D01*
G75*
G02*
X257024834Y-62622403I-77403J-1122334D01*
G01*
X256984834Y-63202403D01*
G75*
G02*
X255785097Y-64247334I-1122334J77403D01*
G01*
G37*
D10*
X320355000Y-67625000D03*
X310195000Y-67625000D03*
D11*
X312775000Y-63625000D03*
D12*
X315275000Y-67625000D03*
G36*
G01*
X310713688Y-65922350D02*
X310713683Y-65922345D01*
G75*
G02*
X310627655Y-64333683I751317J837345D01*
G01*
X311937657Y-62873683D01*
G75*
G02*
X313526319Y-62787655I837345J-751317D01*
G01*
X313526319Y-62787655D01*
G75*
G02*
X313612347Y-64376317I-751317J-837345D01*
G01*
X312302345Y-65836317D01*
G75*
G02*
X310713683Y-65922345I-837345J751317D01*
G01*
G37*
D11*
X317815000Y-62545000D03*
G36*
G01*
X317698483Y-64247395D02*
X317697597Y-64247334D01*
G75*
G02*
X316652666Y-63047597I77403J1122334D01*
G01*
X316692666Y-62467597D01*
G75*
G02*
X317892403Y-61422666I1122334J-77403D01*
G01*
X317892403Y-61422666D01*
G75*
G02*
X318937334Y-62622403I-77403J-1122334D01*
G01*
X318897334Y-63202403D01*
G75*
G02*
X317697597Y-64247334I-1122334J77403D01*
G01*
G37*
D10*
X320355000Y-86675000D03*
X310195000Y-86675000D03*
D11*
X312775000Y-82675000D03*
D12*
X315275000Y-86675000D03*
G36*
G01*
X310713688Y-84972350D02*
X310713683Y-84972345D01*
G75*
G02*
X310627655Y-83383683I751317J837345D01*
G01*
X311937657Y-81923683D01*
G75*
G02*
X313526319Y-81837655I837345J-751317D01*
G01*
X313526319Y-81837655D01*
G75*
G02*
X313612347Y-83426317I-751317J-837345D01*
G01*
X312302345Y-84886317D01*
G75*
G02*
X310713683Y-84972345I-837345J751317D01*
G01*
G37*
D11*
X317815000Y-81595000D03*
G36*
G01*
X317698483Y-83297395D02*
X317697597Y-83297334D01*
G75*
G02*
X316652666Y-82097597I77403J1122334D01*
G01*
X316692666Y-81517597D01*
G75*
G02*
X317892403Y-80472666I1122334J-77403D01*
G01*
X317892403Y-80472666D01*
G75*
G02*
X318937334Y-81672403I-77403J-1122334D01*
G01*
X318897334Y-82252403D01*
G75*
G02*
X317697597Y-83297334I-1122334J77403D01*
G01*
G37*
D10*
X234630000Y-48575000D03*
X224470000Y-48575000D03*
D11*
X227050000Y-44575000D03*
D12*
X229550000Y-48575000D03*
G36*
G01*
X224988688Y-46872350D02*
X224988683Y-46872345D01*
G75*
G02*
X224902655Y-45283683I751317J837345D01*
G01*
X226212657Y-43823683D01*
G75*
G02*
X227801319Y-43737655I837345J-751317D01*
G01*
X227801319Y-43737655D01*
G75*
G02*
X227887347Y-45326317I-751317J-837345D01*
G01*
X226577345Y-46786317D01*
G75*
G02*
X224988683Y-46872345I-837345J751317D01*
G01*
G37*
D11*
X232090000Y-43495000D03*
G36*
G01*
X231973483Y-45197395D02*
X231972597Y-45197334D01*
G75*
G02*
X230927666Y-43997597I77403J1122334D01*
G01*
X230967666Y-43417597D01*
G75*
G02*
X232167403Y-42372666I1122334J-77403D01*
G01*
X232167403Y-42372666D01*
G75*
G02*
X233212334Y-43572403I-77403J-1122334D01*
G01*
X233172334Y-44152403D01*
G75*
G02*
X231972597Y-45197334I-1122334J77403D01*
G01*
G37*
D10*
X215580000Y-48575000D03*
X205420000Y-48575000D03*
D11*
X208000000Y-44575000D03*
D12*
X210500000Y-48575000D03*
G36*
G01*
X205938688Y-46872350D02*
X205938683Y-46872345D01*
G75*
G02*
X205852655Y-45283683I751317J837345D01*
G01*
X207162657Y-43823683D01*
G75*
G02*
X208751319Y-43737655I837345J-751317D01*
G01*
X208751319Y-43737655D01*
G75*
G02*
X208837347Y-45326317I-751317J-837345D01*
G01*
X207527345Y-46786317D01*
G75*
G02*
X205938683Y-46872345I-837345J751317D01*
G01*
G37*
D11*
X213040000Y-43495000D03*
G36*
G01*
X212923483Y-45197395D02*
X212922597Y-45197334D01*
G75*
G02*
X211877666Y-43997597I77403J1122334D01*
G01*
X211917666Y-43417597D01*
G75*
G02*
X213117403Y-42372666I1122334J-77403D01*
G01*
X213117403Y-42372666D01*
G75*
G02*
X214162334Y-43572403I-77403J-1122334D01*
G01*
X214122334Y-44152403D01*
G75*
G02*
X212922597Y-45197334I-1122334J77403D01*
G01*
G37*
D10*
X172717500Y-86675000D03*
X162557500Y-86675000D03*
D11*
X165137500Y-82675000D03*
D12*
X167637500Y-86675000D03*
G36*
G01*
X163076188Y-84972350D02*
X163076183Y-84972345D01*
G75*
G02*
X162990155Y-83383683I751317J837345D01*
G01*
X164300157Y-81923683D01*
G75*
G02*
X165888819Y-81837655I837345J-751317D01*
G01*
X165888819Y-81837655D01*
G75*
G02*
X165974847Y-83426317I-751317J-837345D01*
G01*
X164664845Y-84886317D01*
G75*
G02*
X163076183Y-84972345I-837345J751317D01*
G01*
G37*
D11*
X170177500Y-81595000D03*
G36*
G01*
X170060983Y-83297395D02*
X170060097Y-83297334D01*
G75*
G02*
X169015166Y-82097597I77403J1122334D01*
G01*
X169055166Y-81517597D01*
G75*
G02*
X170254903Y-80472666I1122334J-77403D01*
G01*
X170254903Y-80472666D01*
G75*
G02*
X171299834Y-81672403I-77403J-1122334D01*
G01*
X171259834Y-82252403D01*
G75*
G02*
X170060097Y-83297334I-1122334J77403D01*
G01*
G37*
D10*
X244155000Y-29525000D03*
X233995000Y-29525000D03*
D11*
X236575000Y-25525000D03*
D12*
X239075000Y-29525000D03*
G36*
G01*
X234513688Y-27822350D02*
X234513683Y-27822345D01*
G75*
G02*
X234427655Y-26233683I751317J837345D01*
G01*
X235737657Y-24773683D01*
G75*
G02*
X237326319Y-24687655I837345J-751317D01*
G01*
X237326319Y-24687655D01*
G75*
G02*
X237412347Y-26276317I-751317J-837345D01*
G01*
X236102345Y-27736317D01*
G75*
G02*
X234513683Y-27822345I-837345J751317D01*
G01*
G37*
D11*
X241615000Y-24445000D03*
G36*
G01*
X241498483Y-26147395D02*
X241497597Y-26147334D01*
G75*
G02*
X240452666Y-24947597I77403J1122334D01*
G01*
X240492666Y-24367597D01*
G75*
G02*
X241692403Y-23322666I1122334J-77403D01*
G01*
X241692403Y-23322666D01*
G75*
G02*
X242737334Y-24522403I-77403J-1122334D01*
G01*
X242697334Y-25102403D01*
G75*
G02*
X241497597Y-26147334I-1122334J77403D01*
G01*
G37*
D10*
X191767500Y-86675000D03*
X181607500Y-86675000D03*
D11*
X184187500Y-82675000D03*
D12*
X186687500Y-86675000D03*
G36*
G01*
X182126188Y-84972350D02*
X182126183Y-84972345D01*
G75*
G02*
X182040155Y-83383683I751317J837345D01*
G01*
X183350157Y-81923683D01*
G75*
G02*
X184938819Y-81837655I837345J-751317D01*
G01*
X184938819Y-81837655D01*
G75*
G02*
X185024847Y-83426317I-751317J-837345D01*
G01*
X183714845Y-84886317D01*
G75*
G02*
X182126183Y-84972345I-837345J751317D01*
G01*
G37*
D11*
X189227500Y-81595000D03*
G36*
G01*
X189110983Y-83297395D02*
X189110097Y-83297334D01*
G75*
G02*
X188065166Y-82097597I77403J1122334D01*
G01*
X188105166Y-81517597D01*
G75*
G02*
X189304903Y-80472666I1122334J-77403D01*
G01*
X189304903Y-80472666D01*
G75*
G02*
X190349834Y-81672403I-77403J-1122334D01*
G01*
X190309834Y-82252403D01*
G75*
G02*
X189110097Y-83297334I-1122334J77403D01*
G01*
G37*
D10*
X282255000Y-105725000D03*
X272095000Y-105725000D03*
D11*
X274675000Y-101725000D03*
D12*
X277175000Y-105725000D03*
G36*
G01*
X272613688Y-104022350D02*
X272613683Y-104022345D01*
G75*
G02*
X272527655Y-102433683I751317J837345D01*
G01*
X273837657Y-100973683D01*
G75*
G02*
X275426319Y-100887655I837345J-751317D01*
G01*
X275426319Y-100887655D01*
G75*
G02*
X275512347Y-102476317I-751317J-837345D01*
G01*
X274202345Y-103936317D01*
G75*
G02*
X272613683Y-104022345I-837345J751317D01*
G01*
G37*
D11*
X279715000Y-100645000D03*
G36*
G01*
X279598483Y-102347395D02*
X279597597Y-102347334D01*
G75*
G02*
X278552666Y-101147597I77403J1122334D01*
G01*
X278592666Y-100567597D01*
G75*
G02*
X279792403Y-99522666I1122334J-77403D01*
G01*
X279792403Y-99522666D01*
G75*
G02*
X280837334Y-100722403I-77403J-1122334D01*
G01*
X280797334Y-101302403D01*
G75*
G02*
X279597597Y-102347334I-1122334J77403D01*
G01*
G37*
D10*
X220342500Y-67625000D03*
X210182500Y-67625000D03*
D11*
X212762500Y-63625000D03*
D12*
X215262500Y-67625000D03*
G36*
G01*
X210701188Y-65922350D02*
X210701183Y-65922345D01*
G75*
G02*
X210615155Y-64333683I751317J837345D01*
G01*
X211925157Y-62873683D01*
G75*
G02*
X213513819Y-62787655I837345J-751317D01*
G01*
X213513819Y-62787655D01*
G75*
G02*
X213599847Y-64376317I-751317J-837345D01*
G01*
X212289845Y-65836317D01*
G75*
G02*
X210701183Y-65922345I-837345J751317D01*
G01*
G37*
D11*
X217802500Y-62545000D03*
G36*
G01*
X217685983Y-64247395D02*
X217685097Y-64247334D01*
G75*
G02*
X216640166Y-63047597I77403J1122334D01*
G01*
X216680166Y-62467597D01*
G75*
G02*
X217879903Y-61422666I1122334J-77403D01*
G01*
X217879903Y-61422666D01*
G75*
G02*
X218924834Y-62622403I-77403J-1122334D01*
G01*
X218884834Y-63202403D01*
G75*
G02*
X217685097Y-64247334I-1122334J77403D01*
G01*
G37*
D10*
X201292500Y-67625000D03*
X191132500Y-67625000D03*
D11*
X193712500Y-63625000D03*
D12*
X196212500Y-67625000D03*
G36*
G01*
X191651188Y-65922350D02*
X191651183Y-65922345D01*
G75*
G02*
X191565155Y-64333683I751317J837345D01*
G01*
X192875157Y-62873683D01*
G75*
G02*
X194463819Y-62787655I837345J-751317D01*
G01*
X194463819Y-62787655D01*
G75*
G02*
X194549847Y-64376317I-751317J-837345D01*
G01*
X193239845Y-65836317D01*
G75*
G02*
X191651183Y-65922345I-837345J751317D01*
G01*
G37*
D11*
X198752500Y-62545000D03*
G36*
G01*
X198635983Y-64247395D02*
X198635097Y-64247334D01*
G75*
G02*
X197590166Y-63047597I77403J1122334D01*
G01*
X197630166Y-62467597D01*
G75*
G02*
X198829903Y-61422666I1122334J-77403D01*
G01*
X198829903Y-61422666D01*
G75*
G02*
X199874834Y-62622403I-77403J-1122334D01*
G01*
X199834834Y-63202403D01*
G75*
G02*
X198635097Y-64247334I-1122334J77403D01*
G01*
G37*
D10*
X182242500Y-67625000D03*
X172082500Y-67625000D03*
D11*
X174662500Y-63625000D03*
D12*
X177162500Y-67625000D03*
G36*
G01*
X172601188Y-65922350D02*
X172601183Y-65922345D01*
G75*
G02*
X172515155Y-64333683I751317J837345D01*
G01*
X173825157Y-62873683D01*
G75*
G02*
X175413819Y-62787655I837345J-751317D01*
G01*
X175413819Y-62787655D01*
G75*
G02*
X175499847Y-64376317I-751317J-837345D01*
G01*
X174189845Y-65836317D01*
G75*
G02*
X172601183Y-65922345I-837345J751317D01*
G01*
G37*
D11*
X179702500Y-62545000D03*
G36*
G01*
X179585983Y-64247395D02*
X179585097Y-64247334D01*
G75*
G02*
X178540166Y-63047597I77403J1122334D01*
G01*
X178580166Y-62467597D01*
G75*
G02*
X179779903Y-61422666I1122334J-77403D01*
G01*
X179779903Y-61422666D01*
G75*
G02*
X180824834Y-62622403I-77403J-1122334D01*
G01*
X180784834Y-63202403D01*
G75*
G02*
X179585097Y-64247334I-1122334J77403D01*
G01*
G37*
D10*
X163192500Y-67625000D03*
X153032500Y-67625000D03*
D11*
X155612500Y-63625000D03*
D12*
X158112500Y-67625000D03*
G36*
G01*
X153551188Y-65922350D02*
X153551183Y-65922345D01*
G75*
G02*
X153465155Y-64333683I751317J837345D01*
G01*
X154775157Y-62873683D01*
G75*
G02*
X156363819Y-62787655I837345J-751317D01*
G01*
X156363819Y-62787655D01*
G75*
G02*
X156449847Y-64376317I-751317J-837345D01*
G01*
X155139845Y-65836317D01*
G75*
G02*
X153551183Y-65922345I-837345J751317D01*
G01*
G37*
D11*
X160652500Y-62545000D03*
G36*
G01*
X160535983Y-64247395D02*
X160535097Y-64247334D01*
G75*
G02*
X159490166Y-63047597I77403J1122334D01*
G01*
X159530166Y-62467597D01*
G75*
G02*
X160729903Y-61422666I1122334J-77403D01*
G01*
X160729903Y-61422666D01*
G75*
G02*
X161774834Y-62622403I-77403J-1122334D01*
G01*
X161734834Y-63202403D01*
G75*
G02*
X160535097Y-64247334I-1122334J77403D01*
G01*
G37*
D10*
X144142500Y-67625000D03*
X133982500Y-67625000D03*
D11*
X136562500Y-63625000D03*
D12*
X139062500Y-67625000D03*
G36*
G01*
X134501188Y-65922350D02*
X134501183Y-65922345D01*
G75*
G02*
X134415155Y-64333683I751317J837345D01*
G01*
X135725157Y-62873683D01*
G75*
G02*
X137313819Y-62787655I837345J-751317D01*
G01*
X137313819Y-62787655D01*
G75*
G02*
X137399847Y-64376317I-751317J-837345D01*
G01*
X136089845Y-65836317D01*
G75*
G02*
X134501183Y-65922345I-837345J751317D01*
G01*
G37*
D11*
X141602500Y-62545000D03*
G36*
G01*
X141485983Y-64247395D02*
X141485097Y-64247334D01*
G75*
G02*
X140440166Y-63047597I77403J1122334D01*
G01*
X140480166Y-62467597D01*
G75*
G02*
X141679903Y-61422666I1122334J-77403D01*
G01*
X141679903Y-61422666D01*
G75*
G02*
X142724834Y-62622403I-77403J-1122334D01*
G01*
X142684834Y-63202403D01*
G75*
G02*
X141485097Y-64247334I-1122334J77403D01*
G01*
G37*
D10*
X244155000Y-105725000D03*
X233995000Y-105725000D03*
D11*
X236575000Y-101725000D03*
D12*
X239075000Y-105725000D03*
G36*
G01*
X234513688Y-104022350D02*
X234513683Y-104022345D01*
G75*
G02*
X234427655Y-102433683I751317J837345D01*
G01*
X235737657Y-100973683D01*
G75*
G02*
X237326319Y-100887655I837345J-751317D01*
G01*
X237326319Y-100887655D01*
G75*
G02*
X237412347Y-102476317I-751317J-837345D01*
G01*
X236102345Y-103936317D01*
G75*
G02*
X234513683Y-104022345I-837345J751317D01*
G01*
G37*
D11*
X241615000Y-100645000D03*
G36*
G01*
X241498483Y-102347395D02*
X241497597Y-102347334D01*
G75*
G02*
X240452666Y-101147597I77403J1122334D01*
G01*
X240492666Y-100567597D01*
G75*
G02*
X241692403Y-99522666I1122334J-77403D01*
G01*
X241692403Y-99522666D01*
G75*
G02*
X242737334Y-100722403I-77403J-1122334D01*
G01*
X242697334Y-101302403D01*
G75*
G02*
X241497597Y-102347334I-1122334J77403D01*
G01*
G37*
D10*
X125092500Y-67625000D03*
X114932500Y-67625000D03*
D11*
X117512500Y-63625000D03*
D12*
X120012500Y-67625000D03*
G36*
G01*
X115451188Y-65922350D02*
X115451183Y-65922345D01*
G75*
G02*
X115365155Y-64333683I751317J837345D01*
G01*
X116675157Y-62873683D01*
G75*
G02*
X118263819Y-62787655I837345J-751317D01*
G01*
X118263819Y-62787655D01*
G75*
G02*
X118349847Y-64376317I-751317J-837345D01*
G01*
X117039845Y-65836317D01*
G75*
G02*
X115451183Y-65922345I-837345J751317D01*
G01*
G37*
D11*
X122552500Y-62545000D03*
G36*
G01*
X122435983Y-64247395D02*
X122435097Y-64247334D01*
G75*
G02*
X121390166Y-63047597I77403J1122334D01*
G01*
X121430166Y-62467597D01*
G75*
G02*
X122629903Y-61422666I1122334J-77403D01*
G01*
X122629903Y-61422666D01*
G75*
G02*
X123674834Y-62622403I-77403J-1122334D01*
G01*
X123634834Y-63202403D01*
G75*
G02*
X122435097Y-64247334I-1122334J77403D01*
G01*
G37*
D10*
X263205000Y-29525000D03*
X253045000Y-29525000D03*
D11*
X255625000Y-25525000D03*
D12*
X258125000Y-29525000D03*
G36*
G01*
X253563688Y-27822350D02*
X253563683Y-27822345D01*
G75*
G02*
X253477655Y-26233683I751317J837345D01*
G01*
X254787657Y-24773683D01*
G75*
G02*
X256376319Y-24687655I837345J-751317D01*
G01*
X256376319Y-24687655D01*
G75*
G02*
X256462347Y-26276317I-751317J-837345D01*
G01*
X255152345Y-27736317D01*
G75*
G02*
X253563683Y-27822345I-837345J751317D01*
G01*
G37*
D11*
X260665000Y-24445000D03*
G36*
G01*
X260548483Y-26147395D02*
X260547597Y-26147334D01*
G75*
G02*
X259502666Y-24947597I77403J1122334D01*
G01*
X259542666Y-24367597D01*
G75*
G02*
X260742403Y-23322666I1122334J-77403D01*
G01*
X260742403Y-23322666D01*
G75*
G02*
X261787334Y-24522403I-77403J-1122334D01*
G01*
X261747334Y-25102403D01*
G75*
G02*
X260547597Y-26147334I-1122334J77403D01*
G01*
G37*
D12*
X296256750Y-75880000D03*
X272380750Y-75880000D03*
D13*
X296256750Y-60640000D03*
X272380750Y-60640000D03*
D10*
X289398750Y-67625000D03*
X279238750Y-67625000D03*
D11*
X281818750Y-63625000D03*
D12*
X284318750Y-67625000D03*
G36*
G01*
X279757438Y-65922350D02*
X279757433Y-65922345D01*
G75*
G02*
X279671405Y-64333683I751317J837345D01*
G01*
X280981407Y-62873683D01*
G75*
G02*
X282570069Y-62787655I837345J-751317D01*
G01*
X282570069Y-62787655D01*
G75*
G02*
X282656097Y-64376317I-751317J-837345D01*
G01*
X281346095Y-65836317D01*
G75*
G02*
X279757433Y-65922345I-837345J751317D01*
G01*
G37*
D11*
X286858750Y-62545000D03*
G36*
G01*
X286742233Y-64247395D02*
X286741347Y-64247334D01*
G75*
G02*
X285696416Y-63047597I77403J1122334D01*
G01*
X285736416Y-62467597D01*
G75*
G02*
X286936153Y-61422666I1122334J-77403D01*
G01*
X286936153Y-61422666D01*
G75*
G02*
X287981084Y-62622403I-77403J-1122334D01*
G01*
X287941084Y-63202403D01*
G75*
G02*
X286741347Y-64247334I-1122334J77403D01*
G01*
G37*
D10*
X101280000Y-48575000D03*
X91120000Y-48575000D03*
D11*
X93700000Y-44575000D03*
D12*
X96200000Y-48575000D03*
G36*
G01*
X91638688Y-46872350D02*
X91638683Y-46872345D01*
G75*
G02*
X91552655Y-45283683I751317J837345D01*
G01*
X92862657Y-43823683D01*
G75*
G02*
X94451319Y-43737655I837345J-751317D01*
G01*
X94451319Y-43737655D01*
G75*
G02*
X94537347Y-45326317I-751317J-837345D01*
G01*
X93227345Y-46786317D01*
G75*
G02*
X91638683Y-46872345I-837345J751317D01*
G01*
G37*
D11*
X98740000Y-43495000D03*
G36*
G01*
X98623483Y-45197395D02*
X98622597Y-45197334D01*
G75*
G02*
X97577666Y-43997597I77403J1122334D01*
G01*
X97617666Y-43417597D01*
G75*
G02*
X98817403Y-42372666I1122334J-77403D01*
G01*
X98817403Y-42372666D01*
G75*
G02*
X99862334Y-43572403I-77403J-1122334D01*
G01*
X99822334Y-44152403D01*
G75*
G02*
X98622597Y-45197334I-1122334J77403D01*
G01*
G37*
D10*
X301305000Y-105725000D03*
X291145000Y-105725000D03*
D11*
X293725000Y-101725000D03*
D12*
X296225000Y-105725000D03*
G36*
G01*
X291663688Y-104022350D02*
X291663683Y-104022345D01*
G75*
G02*
X291577655Y-102433683I751317J837345D01*
G01*
X292887657Y-100973683D01*
G75*
G02*
X294476319Y-100887655I837345J-751317D01*
G01*
X294476319Y-100887655D01*
G75*
G02*
X294562347Y-102476317I-751317J-837345D01*
G01*
X293252345Y-103936317D01*
G75*
G02*
X291663683Y-104022345I-837345J751317D01*
G01*
G37*
D11*
X298765000Y-100645000D03*
G36*
G01*
X298648483Y-102347395D02*
X298647597Y-102347334D01*
G75*
G02*
X297602666Y-101147597I77403J1122334D01*
G01*
X297642666Y-100567597D01*
G75*
G02*
X298842403Y-99522666I1122334J-77403D01*
G01*
X298842403Y-99522666D01*
G75*
G02*
X299887334Y-100722403I-77403J-1122334D01*
G01*
X299847334Y-101302403D01*
G75*
G02*
X298647597Y-102347334I-1122334J77403D01*
G01*
G37*
D10*
X229867500Y-86675000D03*
X219707500Y-86675000D03*
D11*
X222287500Y-82675000D03*
D12*
X224787500Y-86675000D03*
G36*
G01*
X220226188Y-84972350D02*
X220226183Y-84972345D01*
G75*
G02*
X220140155Y-83383683I751317J837345D01*
G01*
X221450157Y-81923683D01*
G75*
G02*
X223038819Y-81837655I837345J-751317D01*
G01*
X223038819Y-81837655D01*
G75*
G02*
X223124847Y-83426317I-751317J-837345D01*
G01*
X221814845Y-84886317D01*
G75*
G02*
X220226183Y-84972345I-837345J751317D01*
G01*
G37*
D11*
X227327500Y-81595000D03*
G36*
G01*
X227210983Y-83297395D02*
X227210097Y-83297334D01*
G75*
G02*
X226165166Y-82097597I77403J1122334D01*
G01*
X226205166Y-81517597D01*
G75*
G02*
X227404903Y-80472666I1122334J-77403D01*
G01*
X227404903Y-80472666D01*
G75*
G02*
X228449834Y-81672403I-77403J-1122334D01*
G01*
X228409834Y-82252403D01*
G75*
G02*
X227210097Y-83297334I-1122334J77403D01*
G01*
G37*
D10*
X320355000Y-48575000D03*
X310195000Y-48575000D03*
D11*
X312775000Y-44575000D03*
D12*
X315275000Y-48575000D03*
G36*
G01*
X310713688Y-46872350D02*
X310713683Y-46872345D01*
G75*
G02*
X310627655Y-45283683I751317J837345D01*
G01*
X311937657Y-43823683D01*
G75*
G02*
X313526319Y-43737655I837345J-751317D01*
G01*
X313526319Y-43737655D01*
G75*
G02*
X313612347Y-45326317I-751317J-837345D01*
G01*
X312302345Y-46786317D01*
G75*
G02*
X310713683Y-46872345I-837345J751317D01*
G01*
G37*
D11*
X317815000Y-43495000D03*
G36*
G01*
X317698483Y-45197395D02*
X317697597Y-45197334D01*
G75*
G02*
X316652666Y-43997597I77403J1122334D01*
G01*
X316692666Y-43417597D01*
G75*
G02*
X317892403Y-42372666I1122334J-77403D01*
G01*
X317892403Y-42372666D01*
G75*
G02*
X318937334Y-43572403I-77403J-1122334D01*
G01*
X318897334Y-44152403D01*
G75*
G02*
X317697597Y-45197334I-1122334J77403D01*
G01*
G37*
D10*
X106042500Y-67625000D03*
X95882500Y-67625000D03*
D11*
X98462500Y-63625000D03*
D12*
X100962500Y-67625000D03*
G36*
G01*
X96401188Y-65922350D02*
X96401183Y-65922345D01*
G75*
G02*
X96315155Y-64333683I751317J837345D01*
G01*
X97625157Y-62873683D01*
G75*
G02*
X99213819Y-62787655I837345J-751317D01*
G01*
X99213819Y-62787655D01*
G75*
G02*
X99299847Y-64376317I-751317J-837345D01*
G01*
X97989845Y-65836317D01*
G75*
G02*
X96401183Y-65922345I-837345J751317D01*
G01*
G37*
D11*
X103502500Y-62545000D03*
G36*
G01*
X103385983Y-64247395D02*
X103385097Y-64247334D01*
G75*
G02*
X102340166Y-63047597I77403J1122334D01*
G01*
X102380166Y-62467597D01*
G75*
G02*
X103579903Y-61422666I1122334J-77403D01*
G01*
X103579903Y-61422666D01*
G75*
G02*
X104624834Y-62622403I-77403J-1122334D01*
G01*
X104584834Y-63202403D01*
G75*
G02*
X103385097Y-64247334I-1122334J77403D01*
G01*
G37*
D10*
X36986250Y-105725000D03*
X26826250Y-105725000D03*
D11*
X29406250Y-101725000D03*
D12*
X31906250Y-105725000D03*
G36*
G01*
X27344938Y-104022350D02*
X27344933Y-104022345D01*
G75*
G02*
X27258905Y-102433683I751317J837345D01*
G01*
X28568907Y-100973683D01*
G75*
G02*
X30157569Y-100887655I837345J-751317D01*
G01*
X30157569Y-100887655D01*
G75*
G02*
X30243597Y-102476317I-751317J-837345D01*
G01*
X28933595Y-103936317D01*
G75*
G02*
X27344933Y-104022345I-837345J751317D01*
G01*
G37*
D11*
X34446250Y-100645000D03*
G36*
G01*
X34329733Y-102347395D02*
X34328847Y-102347334D01*
G75*
G02*
X33283916Y-101147597I77403J1122334D01*
G01*
X33323916Y-100567597D01*
G75*
G02*
X34523653Y-99522666I1122334J-77403D01*
G01*
X34523653Y-99522666D01*
G75*
G02*
X35568584Y-100722403I-77403J-1122334D01*
G01*
X35528584Y-101302403D01*
G75*
G02*
X34328847Y-102347334I-1122334J77403D01*
G01*
G37*
D10*
X263205000Y-105725000D03*
X253045000Y-105725000D03*
D11*
X255625000Y-101725000D03*
D12*
X258125000Y-105725000D03*
G36*
G01*
X253563688Y-104022350D02*
X253563683Y-104022345D01*
G75*
G02*
X253477655Y-102433683I751317J837345D01*
G01*
X254787657Y-100973683D01*
G75*
G02*
X256376319Y-100887655I837345J-751317D01*
G01*
X256376319Y-100887655D01*
G75*
G02*
X256462347Y-102476317I-751317J-837345D01*
G01*
X255152345Y-103936317D01*
G75*
G02*
X253563683Y-104022345I-837345J751317D01*
G01*
G37*
D11*
X260665000Y-100645000D03*
G36*
G01*
X260548483Y-102347395D02*
X260547597Y-102347334D01*
G75*
G02*
X259502666Y-101147597I77403J1122334D01*
G01*
X259542666Y-100567597D01*
G75*
G02*
X260742403Y-99522666I1122334J-77403D01*
G01*
X260742403Y-99522666D01*
G75*
G02*
X261787334Y-100722403I-77403J-1122334D01*
G01*
X261747334Y-101302403D01*
G75*
G02*
X260547597Y-102347334I-1122334J77403D01*
G01*
G37*
D10*
X210817500Y-86675000D03*
X200657500Y-86675000D03*
D11*
X203237500Y-82675000D03*
D12*
X205737500Y-86675000D03*
G36*
G01*
X201176188Y-84972350D02*
X201176183Y-84972345D01*
G75*
G02*
X201090155Y-83383683I751317J837345D01*
G01*
X202400157Y-81923683D01*
G75*
G02*
X203988819Y-81837655I837345J-751317D01*
G01*
X203988819Y-81837655D01*
G75*
G02*
X204074847Y-83426317I-751317J-837345D01*
G01*
X202764845Y-84886317D01*
G75*
G02*
X201176183Y-84972345I-837345J751317D01*
G01*
G37*
D11*
X208277500Y-81595000D03*
G36*
G01*
X208160983Y-83297395D02*
X208160097Y-83297334D01*
G75*
G02*
X207115166Y-82097597I77403J1122334D01*
G01*
X207155166Y-81517597D01*
G75*
G02*
X208354903Y-80472666I1122334J-77403D01*
G01*
X208354903Y-80472666D01*
G75*
G02*
X209399834Y-81672403I-77403J-1122334D01*
G01*
X209359834Y-82252403D01*
G75*
G02*
X208160097Y-83297334I-1122334J77403D01*
G01*
G37*
D10*
X41748750Y-67625000D03*
X31588750Y-67625000D03*
D11*
X34168750Y-63625000D03*
D12*
X36668750Y-67625000D03*
G36*
G01*
X32107438Y-65922350D02*
X32107433Y-65922345D01*
G75*
G02*
X32021405Y-64333683I751317J837345D01*
G01*
X33331407Y-62873683D01*
G75*
G02*
X34920069Y-62787655I837345J-751317D01*
G01*
X34920069Y-62787655D01*
G75*
G02*
X35006097Y-64376317I-751317J-837345D01*
G01*
X33696095Y-65836317D01*
G75*
G02*
X32107433Y-65922345I-837345J751317D01*
G01*
G37*
D11*
X39208750Y-62545000D03*
G36*
G01*
X39092233Y-64247395D02*
X39091347Y-64247334D01*
G75*
G02*
X38046416Y-63047597I77403J1122334D01*
G01*
X38086416Y-62467597D01*
G75*
G02*
X39286153Y-61422666I1122334J-77403D01*
G01*
X39286153Y-61422666D01*
G75*
G02*
X40331084Y-62622403I-77403J-1122334D01*
G01*
X40291084Y-63202403D01*
G75*
G02*
X39091347Y-64247334I-1122334J77403D01*
G01*
G37*
D12*
X298638000Y-37780000D03*
X274762000Y-37780000D03*
D13*
X298638000Y-22540000D03*
X274762000Y-22540000D03*
D10*
X291780000Y-29525000D03*
X281620000Y-29525000D03*
D11*
X284200000Y-25525000D03*
D12*
X286700000Y-29525000D03*
G36*
G01*
X282138688Y-27822350D02*
X282138683Y-27822345D01*
G75*
G02*
X282052655Y-26233683I751317J837345D01*
G01*
X283362657Y-24773683D01*
G75*
G02*
X284951319Y-24687655I837345J-751317D01*
G01*
X284951319Y-24687655D01*
G75*
G02*
X285037347Y-26276317I-751317J-837345D01*
G01*
X283727345Y-27736317D01*
G75*
G02*
X282138683Y-27822345I-837345J751317D01*
G01*
G37*
D11*
X289240000Y-24445000D03*
G36*
G01*
X289123483Y-26147395D02*
X289122597Y-26147334D01*
G75*
G02*
X288077666Y-24947597I77403J1122334D01*
G01*
X288117666Y-24367597D01*
G75*
G02*
X289317403Y-23322666I1122334J-77403D01*
G01*
X289317403Y-23322666D01*
G75*
G02*
X290362334Y-24522403I-77403J-1122334D01*
G01*
X290322334Y-25102403D01*
G75*
G02*
X289122597Y-26147334I-1122334J77403D01*
G01*
G37*
D10*
X153667500Y-86675000D03*
X143507500Y-86675000D03*
D11*
X146087500Y-82675000D03*
D12*
X148587500Y-86675000D03*
G36*
G01*
X144026188Y-84972350D02*
X144026183Y-84972345D01*
G75*
G02*
X143940155Y-83383683I751317J837345D01*
G01*
X145250157Y-81923683D01*
G75*
G02*
X146838819Y-81837655I837345J-751317D01*
G01*
X146838819Y-81837655D01*
G75*
G02*
X146924847Y-83426317I-751317J-837345D01*
G01*
X145614845Y-84886317D01*
G75*
G02*
X144026183Y-84972345I-837345J751317D01*
G01*
G37*
D11*
X151127500Y-81595000D03*
G36*
G01*
X151010983Y-83297395D02*
X151010097Y-83297334D01*
G75*
G02*
X149965166Y-82097597I77403J1122334D01*
G01*
X150005166Y-81517597D01*
G75*
G02*
X151204903Y-80472666I1122334J-77403D01*
G01*
X151204903Y-80472666D01*
G75*
G02*
X152249834Y-81672403I-77403J-1122334D01*
G01*
X152209834Y-82252403D01*
G75*
G02*
X151010097Y-83297334I-1122334J77403D01*
G01*
G37*
D10*
X225105000Y-105725000D03*
X214945000Y-105725000D03*
D11*
X217525000Y-101725000D03*
D12*
X220025000Y-105725000D03*
G36*
G01*
X215463688Y-104022350D02*
X215463683Y-104022345D01*
G75*
G02*
X215377655Y-102433683I751317J837345D01*
G01*
X216687657Y-100973683D01*
G75*
G02*
X218276319Y-100887655I837345J-751317D01*
G01*
X218276319Y-100887655D01*
G75*
G02*
X218362347Y-102476317I-751317J-837345D01*
G01*
X217052345Y-103936317D01*
G75*
G02*
X215463683Y-104022345I-837345J751317D01*
G01*
G37*
D11*
X222565000Y-100645000D03*
G36*
G01*
X222448483Y-102347395D02*
X222447597Y-102347334D01*
G75*
G02*
X221402666Y-101147597I77403J1122334D01*
G01*
X221442666Y-100567597D01*
G75*
G02*
X222642403Y-99522666I1122334J-77403D01*
G01*
X222642403Y-99522666D01*
G75*
G02*
X223687334Y-100722403I-77403J-1122334D01*
G01*
X223647334Y-101302403D01*
G75*
G02*
X222447597Y-102347334I-1122334J77403D01*
G01*
G37*
D10*
X67942500Y-67625000D03*
X57782500Y-67625000D03*
D11*
X60362500Y-63625000D03*
D12*
X62862500Y-67625000D03*
G36*
G01*
X58301188Y-65922350D02*
X58301183Y-65922345D01*
G75*
G02*
X58215155Y-64333683I751317J837345D01*
G01*
X59525157Y-62873683D01*
G75*
G02*
X61113819Y-62787655I837345J-751317D01*
G01*
X61113819Y-62787655D01*
G75*
G02*
X61199847Y-64376317I-751317J-837345D01*
G01*
X59889845Y-65836317D01*
G75*
G02*
X58301183Y-65922345I-837345J751317D01*
G01*
G37*
D11*
X65402500Y-62545000D03*
G36*
G01*
X65285983Y-64247395D02*
X65285097Y-64247334D01*
G75*
G02*
X64240166Y-63047597I77403J1122334D01*
G01*
X64280166Y-62467597D01*
G75*
G02*
X65479903Y-61422666I1122334J-77403D01*
G01*
X65479903Y-61422666D01*
G75*
G02*
X66524834Y-62622403I-77403J-1122334D01*
G01*
X66484834Y-63202403D01*
G75*
G02*
X65285097Y-64247334I-1122334J77403D01*
G01*
G37*
D10*
X320355000Y-29525000D03*
X310195000Y-29525000D03*
D11*
X312775000Y-25525000D03*
D12*
X315275000Y-29525000D03*
G36*
G01*
X310713688Y-27822350D02*
X310713683Y-27822345D01*
G75*
G02*
X310627655Y-26233683I751317J837345D01*
G01*
X311937657Y-24773683D01*
G75*
G02*
X313526319Y-24687655I837345J-751317D01*
G01*
X313526319Y-24687655D01*
G75*
G02*
X313612347Y-26276317I-751317J-837345D01*
G01*
X312302345Y-27736317D01*
G75*
G02*
X310713683Y-27822345I-837345J751317D01*
G01*
G37*
D11*
X317815000Y-24445000D03*
G36*
G01*
X317698483Y-26147395D02*
X317697597Y-26147334D01*
G75*
G02*
X316652666Y-24947597I77403J1122334D01*
G01*
X316692666Y-24367597D01*
G75*
G02*
X317892403Y-23322666I1122334J-77403D01*
G01*
X317892403Y-23322666D01*
G75*
G02*
X318937334Y-24522403I-77403J-1122334D01*
G01*
X318897334Y-25102403D01*
G75*
G02*
X317697597Y-26147334I-1122334J77403D01*
G01*
G37*
D10*
X253680000Y-48575000D03*
X243520000Y-48575000D03*
D11*
X246100000Y-44575000D03*
D12*
X248600000Y-48575000D03*
G36*
G01*
X244038688Y-46872350D02*
X244038683Y-46872345D01*
G75*
G02*
X243952655Y-45283683I751317J837345D01*
G01*
X245262657Y-43823683D01*
G75*
G02*
X246851319Y-43737655I837345J-751317D01*
G01*
X246851319Y-43737655D01*
G75*
G02*
X246937347Y-45326317I-751317J-837345D01*
G01*
X245627345Y-46786317D01*
G75*
G02*
X244038683Y-46872345I-837345J751317D01*
G01*
G37*
D11*
X251140000Y-43495000D03*
G36*
G01*
X251023483Y-45197395D02*
X251022597Y-45197334D01*
G75*
G02*
X249977666Y-43997597I77403J1122334D01*
G01*
X250017666Y-43417597D01*
G75*
G02*
X251217403Y-42372666I1122334J-77403D01*
G01*
X251217403Y-42372666D01*
G75*
G02*
X252262334Y-43572403I-77403J-1122334D01*
G01*
X252222334Y-44152403D01*
G75*
G02*
X251022597Y-45197334I-1122334J77403D01*
G01*
G37*
D10*
X206055000Y-29525000D03*
X195895000Y-29525000D03*
D11*
X198475000Y-25525000D03*
D12*
X200975000Y-29525000D03*
G36*
G01*
X196413688Y-27822350D02*
X196413683Y-27822345D01*
G75*
G02*
X196327655Y-26233683I751317J837345D01*
G01*
X197637657Y-24773683D01*
G75*
G02*
X199226319Y-24687655I837345J-751317D01*
G01*
X199226319Y-24687655D01*
G75*
G02*
X199312347Y-26276317I-751317J-837345D01*
G01*
X198002345Y-27736317D01*
G75*
G02*
X196413683Y-27822345I-837345J751317D01*
G01*
G37*
D11*
X203515000Y-24445000D03*
G36*
G01*
X203398483Y-26147395D02*
X203397597Y-26147334D01*
G75*
G02*
X202352666Y-24947597I77403J1122334D01*
G01*
X202392666Y-24367597D01*
G75*
G02*
X203592403Y-23322666I1122334J-77403D01*
G01*
X203592403Y-23322666D01*
G75*
G02*
X204637334Y-24522403I-77403J-1122334D01*
G01*
X204597334Y-25102403D01*
G75*
G02*
X203397597Y-26147334I-1122334J77403D01*
G01*
G37*
D10*
X187005000Y-29525000D03*
X176845000Y-29525000D03*
D11*
X179425000Y-25525000D03*
D12*
X181925000Y-29525000D03*
G36*
G01*
X177363688Y-27822350D02*
X177363683Y-27822345D01*
G75*
G02*
X177277655Y-26233683I751317J837345D01*
G01*
X178587657Y-24773683D01*
G75*
G02*
X180176319Y-24687655I837345J-751317D01*
G01*
X180176319Y-24687655D01*
G75*
G02*
X180262347Y-26276317I-751317J-837345D01*
G01*
X178952345Y-27736317D01*
G75*
G02*
X177363683Y-27822345I-837345J751317D01*
G01*
G37*
D11*
X184465000Y-24445000D03*
G36*
G01*
X184348483Y-26147395D02*
X184347597Y-26147334D01*
G75*
G02*
X183302666Y-24947597I77403J1122334D01*
G01*
X183342666Y-24367597D01*
G75*
G02*
X184542403Y-23322666I1122334J-77403D01*
G01*
X184542403Y-23322666D01*
G75*
G02*
X185587334Y-24522403I-77403J-1122334D01*
G01*
X185547334Y-25102403D01*
G75*
G02*
X184347597Y-26147334I-1122334J77403D01*
G01*
G37*
D10*
X167955000Y-29525000D03*
X157795000Y-29525000D03*
D11*
X160375000Y-25525000D03*
D12*
X162875000Y-29525000D03*
G36*
G01*
X158313688Y-27822350D02*
X158313683Y-27822345D01*
G75*
G02*
X158227655Y-26233683I751317J837345D01*
G01*
X159537657Y-24773683D01*
G75*
G02*
X161126319Y-24687655I837345J-751317D01*
G01*
X161126319Y-24687655D01*
G75*
G02*
X161212347Y-26276317I-751317J-837345D01*
G01*
X159902345Y-27736317D01*
G75*
G02*
X158313683Y-27822345I-837345J751317D01*
G01*
G37*
D11*
X165415000Y-24445000D03*
G36*
G01*
X165298483Y-26147395D02*
X165297597Y-26147334D01*
G75*
G02*
X164252666Y-24947597I77403J1122334D01*
G01*
X164292666Y-24367597D01*
G75*
G02*
X165492403Y-23322666I1122334J-77403D01*
G01*
X165492403Y-23322666D01*
G75*
G02*
X166537334Y-24522403I-77403J-1122334D01*
G01*
X166497334Y-25102403D01*
G75*
G02*
X165297597Y-26147334I-1122334J77403D01*
G01*
G37*
D10*
X148905000Y-29525000D03*
X138745000Y-29525000D03*
D11*
X141325000Y-25525000D03*
D12*
X143825000Y-29525000D03*
G36*
G01*
X139263688Y-27822350D02*
X139263683Y-27822345D01*
G75*
G02*
X139177655Y-26233683I751317J837345D01*
G01*
X140487657Y-24773683D01*
G75*
G02*
X142076319Y-24687655I837345J-751317D01*
G01*
X142076319Y-24687655D01*
G75*
G02*
X142162347Y-26276317I-751317J-837345D01*
G01*
X140852345Y-27736317D01*
G75*
G02*
X139263683Y-27822345I-837345J751317D01*
G01*
G37*
D11*
X146365000Y-24445000D03*
G36*
G01*
X146248483Y-26147395D02*
X146247597Y-26147334D01*
G75*
G02*
X145202666Y-24947597I77403J1122334D01*
G01*
X145242666Y-24367597D01*
G75*
G02*
X146442403Y-23322666I1122334J-77403D01*
G01*
X146442403Y-23322666D01*
G75*
G02*
X147487334Y-24522403I-77403J-1122334D01*
G01*
X147447334Y-25102403D01*
G75*
G02*
X146247597Y-26147334I-1122334J77403D01*
G01*
G37*
D10*
X129855000Y-29525000D03*
X119695000Y-29525000D03*
D11*
X122275000Y-25525000D03*
D12*
X124775000Y-29525000D03*
G36*
G01*
X120213688Y-27822350D02*
X120213683Y-27822345D01*
G75*
G02*
X120127655Y-26233683I751317J837345D01*
G01*
X121437657Y-24773683D01*
G75*
G02*
X123026319Y-24687655I837345J-751317D01*
G01*
X123026319Y-24687655D01*
G75*
G02*
X123112347Y-26276317I-751317J-837345D01*
G01*
X121802345Y-27736317D01*
G75*
G02*
X120213683Y-27822345I-837345J751317D01*
G01*
G37*
D11*
X127315000Y-24445000D03*
G36*
G01*
X127198483Y-26147395D02*
X127197597Y-26147334D01*
G75*
G02*
X126152666Y-24947597I77403J1122334D01*
G01*
X126192666Y-24367597D01*
G75*
G02*
X127392403Y-23322666I1122334J-77403D01*
G01*
X127392403Y-23322666D01*
G75*
G02*
X128437334Y-24522403I-77403J-1122334D01*
G01*
X128397334Y-25102403D01*
G75*
G02*
X127197597Y-26147334I-1122334J77403D01*
G01*
G37*
D10*
X110805000Y-29525000D03*
X100645000Y-29525000D03*
D11*
X103225000Y-25525000D03*
D12*
X105725000Y-29525000D03*
G36*
G01*
X101163688Y-27822350D02*
X101163683Y-27822345D01*
G75*
G02*
X101077655Y-26233683I751317J837345D01*
G01*
X102387657Y-24773683D01*
G75*
G02*
X103976319Y-24687655I837345J-751317D01*
G01*
X103976319Y-24687655D01*
G75*
G02*
X104062347Y-26276317I-751317J-837345D01*
G01*
X102752345Y-27736317D01*
G75*
G02*
X101163683Y-27822345I-837345J751317D01*
G01*
G37*
D11*
X108265000Y-24445000D03*
G36*
G01*
X108148483Y-26147395D02*
X108147597Y-26147334D01*
G75*
G02*
X107102666Y-24947597I77403J1122334D01*
G01*
X107142666Y-24367597D01*
G75*
G02*
X108342403Y-23322666I1122334J-77403D01*
G01*
X108342403Y-23322666D01*
G75*
G02*
X109387334Y-24522403I-77403J-1122334D01*
G01*
X109347334Y-25102403D01*
G75*
G02*
X108147597Y-26147334I-1122334J77403D01*
G01*
G37*
G36*
G01*
X89098483Y-26147395D02*
X89097597Y-26147334D01*
G75*
G02*
X88052666Y-24947597I77403J1122334D01*
G01*
X88092666Y-24367597D01*
G75*
G02*
X89292403Y-23322666I1122334J-77403D01*
G01*
X89292403Y-23322666D01*
G75*
G02*
X90337334Y-24522403I-77403J-1122334D01*
G01*
X90297334Y-25102403D01*
G75*
G02*
X89097597Y-26147334I-1122334J77403D01*
G01*
G37*
X89215000Y-24445000D03*
G36*
G01*
X82113688Y-27822350D02*
X82113683Y-27822345D01*
G75*
G02*
X82027655Y-26233683I751317J837345D01*
G01*
X83337657Y-24773683D01*
G75*
G02*
X84926319Y-24687655I837345J-751317D01*
G01*
X84926319Y-24687655D01*
G75*
G02*
X85012347Y-26276317I-751317J-837345D01*
G01*
X83702345Y-27736317D01*
G75*
G02*
X82113683Y-27822345I-837345J751317D01*
G01*
G37*
D12*
X86675000Y-29525000D03*
D11*
X84175000Y-25525000D03*
D10*
X81595000Y-29525000D03*
X91755000Y-29525000D03*
X72705000Y-29525000D03*
X62545000Y-29525000D03*
D11*
X65125000Y-25525000D03*
D12*
X67625000Y-29525000D03*
G36*
G01*
X63063688Y-27822350D02*
X63063683Y-27822345D01*
G75*
G02*
X62977655Y-26233683I751317J837345D01*
G01*
X64287657Y-24773683D01*
G75*
G02*
X65876319Y-24687655I837345J-751317D01*
G01*
X65876319Y-24687655D01*
G75*
G02*
X65962347Y-26276317I-751317J-837345D01*
G01*
X64652345Y-27736317D01*
G75*
G02*
X63063683Y-27822345I-837345J751317D01*
G01*
G37*
D11*
X70165000Y-24445000D03*
G36*
G01*
X70048483Y-26147395D02*
X70047597Y-26147334D01*
G75*
G02*
X69002666Y-24947597I77403J1122334D01*
G01*
X69042666Y-24367597D01*
G75*
G02*
X70242403Y-23322666I1122334J-77403D01*
G01*
X70242403Y-23322666D01*
G75*
G02*
X71287334Y-24522403I-77403J-1122334D01*
G01*
X71247334Y-25102403D01*
G75*
G02*
X70047597Y-26147334I-1122334J77403D01*
G01*
G37*
D10*
X53655000Y-29525000D03*
X43495000Y-29525000D03*
D11*
X46075000Y-25525000D03*
D12*
X48575000Y-29525000D03*
G36*
G01*
X44013688Y-27822350D02*
X44013683Y-27822345D01*
G75*
G02*
X43927655Y-26233683I751317J837345D01*
G01*
X45237657Y-24773683D01*
G75*
G02*
X46826319Y-24687655I837345J-751317D01*
G01*
X46826319Y-24687655D01*
G75*
G02*
X46912347Y-26276317I-751317J-837345D01*
G01*
X45602345Y-27736317D01*
G75*
G02*
X44013683Y-27822345I-837345J751317D01*
G01*
G37*
D11*
X51115000Y-24445000D03*
G36*
G01*
X50998483Y-26147395D02*
X50997597Y-26147334D01*
G75*
G02*
X49952666Y-24947597I77403J1122334D01*
G01*
X49992666Y-24367597D01*
G75*
G02*
X51192403Y-23322666I1122334J-77403D01*
G01*
X51192403Y-23322666D01*
G75*
G02*
X52237334Y-24522403I-77403J-1122334D01*
G01*
X52197334Y-25102403D01*
G75*
G02*
X50997597Y-26147334I-1122334J77403D01*
G01*
G37*
D16*
X76300000Y-92200000D03*
D17*
X68500000Y-92200000D03*
D18*
X70825000Y-92200000D03*
X73975000Y-92200000D03*
D16*
X157250000Y-54100000D03*
D17*
X149450000Y-54100000D03*
D18*
X151775000Y-54100000D03*
X154925000Y-54100000D03*
D16*
X95350000Y-92200000D03*
D17*
X87550000Y-92200000D03*
D18*
X89875000Y-92200000D03*
X93025000Y-92200000D03*
D16*
X59600000Y-111250000D03*
D17*
X51800000Y-111250000D03*
D18*
X54125000Y-111250000D03*
X57275000Y-111250000D03*
D16*
X81050000Y-54100000D03*
D17*
X73250000Y-54100000D03*
D18*
X75575000Y-54100000D03*
X78725000Y-54100000D03*
D16*
X133450000Y-92200000D03*
D17*
X125650000Y-92200000D03*
D18*
X127975000Y-92200000D03*
X131125000Y-92200000D03*
D16*
X300150000Y-92200000D03*
D17*
X292350000Y-92200000D03*
D18*
X294675000Y-92200000D03*
X297825000Y-92200000D03*
D16*
X176250000Y-54100000D03*
D17*
X168450000Y-54100000D03*
D18*
X170775000Y-54100000D03*
X173925000Y-54100000D03*
D16*
X38200000Y-54100000D03*
D17*
X30400000Y-54100000D03*
D18*
X32725000Y-54100000D03*
X35875000Y-54100000D03*
D16*
X138225000Y-54100000D03*
D17*
X130425000Y-54100000D03*
D18*
X132750000Y-54100000D03*
X135900000Y-54100000D03*
D16*
X247750000Y-92200000D03*
D17*
X239950000Y-92200000D03*
D18*
X242275000Y-92200000D03*
X245425000Y-92200000D03*
D16*
X45350000Y-92200000D03*
D17*
X37550000Y-92200000D03*
D18*
X39875000Y-92200000D03*
X43025000Y-92200000D03*
D16*
X273950000Y-92200000D03*
D17*
X266150000Y-92200000D03*
D18*
X268475000Y-92200000D03*
X271625000Y-92200000D03*
D16*
X238200000Y-73150000D03*
D17*
X230400000Y-73150000D03*
D18*
X232725000Y-73150000D03*
X235875000Y-73150000D03*
D16*
X85800000Y-73150000D03*
D17*
X78000000Y-73150000D03*
D18*
X80325000Y-73150000D03*
X83475000Y-73150000D03*
D16*
X319200000Y-111250000D03*
D17*
X311400000Y-111250000D03*
D18*
X313725000Y-111250000D03*
X316875000Y-111250000D03*
D16*
X119125000Y-54100000D03*
D17*
X111325000Y-54100000D03*
D18*
X113650000Y-54100000D03*
X116800000Y-54100000D03*
D16*
X257250000Y-73150000D03*
D17*
X249450000Y-73150000D03*
D18*
X251775000Y-73150000D03*
X254925000Y-73150000D03*
D16*
X62000000Y-54100000D03*
D17*
X54200000Y-54100000D03*
D18*
X56525000Y-54100000D03*
X59675000Y-54100000D03*
D16*
X319200000Y-73150000D03*
D17*
X311400000Y-73150000D03*
D18*
X313725000Y-73150000D03*
X316875000Y-73150000D03*
D16*
X319200000Y-92200000D03*
D17*
X311400000Y-92200000D03*
D18*
X313725000Y-92200000D03*
X316875000Y-92200000D03*
D16*
X233450000Y-54100000D03*
D17*
X225650000Y-54100000D03*
D18*
X227975000Y-54100000D03*
X231125000Y-54100000D03*
D16*
X214400000Y-54100000D03*
D17*
X206600000Y-54100000D03*
D18*
X208925000Y-54100000D03*
X212075000Y-54100000D03*
D16*
X171550000Y-92200000D03*
D17*
X163750000Y-92200000D03*
D18*
X166075000Y-92200000D03*
X169225000Y-92200000D03*
D16*
X243000000Y-35050000D03*
D17*
X235200000Y-35050000D03*
D18*
X237525000Y-35050000D03*
X240675000Y-35050000D03*
D16*
X190600000Y-92200000D03*
D17*
X182800000Y-92200000D03*
D18*
X185125000Y-92200000D03*
X188275000Y-92200000D03*
D16*
X281100000Y-111250000D03*
D17*
X273300000Y-111250000D03*
D18*
X275625000Y-111250000D03*
X278775000Y-111250000D03*
D16*
X219150000Y-73150000D03*
D17*
X211350000Y-73150000D03*
D18*
X213675000Y-73150000D03*
X216825000Y-73150000D03*
D16*
X200100000Y-73150000D03*
D17*
X192300000Y-73150000D03*
D18*
X194625000Y-73150000D03*
X197775000Y-73150000D03*
D16*
X181050000Y-73150000D03*
D17*
X173250000Y-73150000D03*
D18*
X175575000Y-73150000D03*
X178725000Y-73150000D03*
D16*
X195350000Y-54100000D03*
D17*
X187550000Y-54100000D03*
D18*
X189875000Y-54100000D03*
X193025000Y-54100000D03*
D16*
X162000000Y-73150000D03*
D17*
X154200000Y-73150000D03*
D18*
X156525000Y-73150000D03*
X159675000Y-73150000D03*
D16*
X142950000Y-73150000D03*
D17*
X135150000Y-73150000D03*
D18*
X137475000Y-73150000D03*
X140625000Y-73150000D03*
D16*
X243000000Y-111250000D03*
D17*
X235200000Y-111250000D03*
D18*
X237525000Y-111250000D03*
X240675000Y-111250000D03*
D16*
X123900000Y-73150000D03*
D17*
X116100000Y-73150000D03*
D18*
X118425000Y-73150000D03*
X121575000Y-73150000D03*
D16*
X33450000Y-35050000D03*
D17*
X25650000Y-35050000D03*
D18*
X27975000Y-35050000D03*
X31125000Y-35050000D03*
D16*
X262050000Y-35050000D03*
D17*
X254250000Y-35050000D03*
D18*
X256575000Y-35050000D03*
X259725000Y-35050000D03*
D16*
X288200000Y-73150000D03*
D17*
X280400000Y-73150000D03*
D18*
X282725000Y-73150000D03*
X285875000Y-73150000D03*
D16*
X100100000Y-54100000D03*
D17*
X92300000Y-54100000D03*
D18*
X94625000Y-54100000D03*
X97775000Y-54100000D03*
D16*
X300150000Y-111250000D03*
D17*
X292350000Y-111250000D03*
D18*
X294675000Y-111250000D03*
X297825000Y-111250000D03*
D16*
X228650000Y-92200000D03*
D17*
X220850000Y-92200000D03*
D18*
X223175000Y-92200000D03*
X226325000Y-92200000D03*
D16*
X319200000Y-54100000D03*
D17*
X311400000Y-54100000D03*
D18*
X313725000Y-54100000D03*
X316875000Y-54100000D03*
D16*
X104850000Y-73150000D03*
D17*
X97050000Y-73150000D03*
D18*
X99375000Y-73150000D03*
X102525000Y-73150000D03*
D16*
X35800000Y-111250000D03*
D17*
X28000000Y-111250000D03*
D18*
X30325000Y-111250000D03*
X33475000Y-111250000D03*
D16*
X262050000Y-111250000D03*
D17*
X254250000Y-111250000D03*
D18*
X256575000Y-111250000D03*
X259725000Y-111250000D03*
D16*
X209650000Y-92200000D03*
D17*
X201850000Y-92200000D03*
D18*
X204175000Y-92200000D03*
X207325000Y-92200000D03*
D16*
X40590000Y-73150000D03*
D17*
X32790000Y-73150000D03*
D18*
X35115000Y-73150000D03*
X38265000Y-73150000D03*
D16*
X114400000Y-92200000D03*
D17*
X106600000Y-92200000D03*
D18*
X108925000Y-92200000D03*
X112075000Y-92200000D03*
D16*
X295350000Y-54100000D03*
D17*
X287550000Y-54100000D03*
D18*
X289875000Y-54100000D03*
X293025000Y-54100000D03*
D16*
X290600000Y-35050000D03*
D17*
X282800000Y-35050000D03*
D18*
X285125000Y-35050000D03*
X288275000Y-35050000D03*
D16*
X152500000Y-92200000D03*
D17*
X144700000Y-92200000D03*
D18*
X147025000Y-92200000D03*
X150175000Y-92200000D03*
D16*
X223950000Y-111250000D03*
D17*
X216150000Y-111250000D03*
D18*
X218475000Y-111250000D03*
X221625000Y-111250000D03*
D16*
X66750000Y-73150000D03*
D17*
X58950000Y-73150000D03*
D18*
X61275000Y-73150000D03*
X64425000Y-73150000D03*
D16*
X319200000Y-35050000D03*
D17*
X311400000Y-35050000D03*
D18*
X313725000Y-35050000D03*
X316875000Y-35050000D03*
D16*
X271500000Y-54100000D03*
D17*
X263700000Y-54100000D03*
D18*
X266025000Y-54100000D03*
X269175000Y-54100000D03*
D16*
X252500000Y-54100000D03*
D17*
X244700000Y-54100000D03*
D18*
X247025000Y-54100000D03*
X250175000Y-54100000D03*
D16*
X204900000Y-35050000D03*
D17*
X197100000Y-35050000D03*
D18*
X199425000Y-35050000D03*
X202575000Y-35050000D03*
D16*
X185850000Y-35050000D03*
D17*
X178050000Y-35050000D03*
D18*
X180375000Y-35050000D03*
X183525000Y-35050000D03*
D16*
X166800000Y-35050000D03*
D17*
X159000000Y-35050000D03*
D18*
X161325000Y-35050000D03*
X164475000Y-35050000D03*
D16*
X147750000Y-35050000D03*
D17*
X139950000Y-35050000D03*
D18*
X142275000Y-35050000D03*
X145425000Y-35050000D03*
D16*
X128700000Y-35050000D03*
D17*
X120900000Y-35050000D03*
D18*
X123225000Y-35050000D03*
X126375000Y-35050000D03*
D16*
X109650000Y-35050000D03*
D17*
X101850000Y-35050000D03*
D18*
X104175000Y-35050000D03*
X107325000Y-35050000D03*
D16*
X90600000Y-35050000D03*
D17*
X82800000Y-35050000D03*
D18*
X85125000Y-35050000D03*
X88275000Y-35050000D03*
D16*
X71550000Y-35050000D03*
D17*
X63750000Y-35050000D03*
D18*
X66075000Y-35050000D03*
X69225000Y-35050000D03*
D16*
X52500000Y-35050000D03*
D17*
X44700000Y-35050000D03*
D18*
X47025000Y-35050000D03*
X50175000Y-35050000D03*
D16*
X223950000Y-35050000D03*
D17*
X216150000Y-35050000D03*
D18*
X218475000Y-35050000D03*
X221625000Y-35050000D03*
G36*
G01*
X106075000Y-108474999D02*
X106075000Y-109375001D01*
G75*
G02*
X105825001Y-109625000I-249999J0D01*
G01*
X105174999Y-109625000D01*
G75*
G02*
X104925000Y-109375001I0J249999D01*
G01*
X104925000Y-108474999D01*
G75*
G02*
X105174999Y-108225000I249999J0D01*
G01*
X105825001Y-108225000D01*
G75*
G02*
X106075000Y-108474999I0J-249999D01*
G01*
G37*
G36*
G01*
X104025000Y-108474999D02*
X104025000Y-109375001D01*
G75*
G02*
X103775001Y-109625000I-249999J0D01*
G01*
X103124999Y-109625000D01*
G75*
G02*
X102875000Y-109375001I0J249999D01*
G01*
X102875000Y-108474999D01*
G75*
G02*
X103124999Y-108225000I249999J0D01*
G01*
X103775001Y-108225000D01*
G75*
G02*
X104025000Y-108474999I0J-249999D01*
G01*
G37*
G36*
G01*
X104025000Y-100624999D02*
X104025000Y-101525001D01*
G75*
G02*
X103775001Y-101775000I-249999J0D01*
G01*
X103124999Y-101775000D01*
G75*
G02*
X102875000Y-101525001I0J249999D01*
G01*
X102875000Y-100624999D01*
G75*
G02*
X103124999Y-100375000I249999J0D01*
G01*
X103775001Y-100375000D01*
G75*
G02*
X104025000Y-100624999I0J-249999D01*
G01*
G37*
G36*
G01*
X106075000Y-100624999D02*
X106075000Y-101525001D01*
G75*
G02*
X105825001Y-101775000I-249999J0D01*
G01*
X105174999Y-101775000D01*
G75*
G02*
X104925000Y-101525001I0J249999D01*
G01*
X104925000Y-100624999D01*
G75*
G02*
X105174999Y-100375000I249999J0D01*
G01*
X105825001Y-100375000D01*
G75*
G02*
X106075000Y-100624999I0J-249999D01*
G01*
G37*
G36*
G01*
X131725000Y-100520001D02*
X131725000Y-99619999D01*
G75*
G02*
X131974999Y-99370000I249999J0D01*
G01*
X132625001Y-99370000D01*
G75*
G02*
X132875000Y-99619999I0J-249999D01*
G01*
X132875000Y-100520001D01*
G75*
G02*
X132625001Y-100770000I-249999J0D01*
G01*
X131974999Y-100770000D01*
G75*
G02*
X131725000Y-100520001I0J249999D01*
G01*
G37*
G36*
G01*
X129675000Y-100520001D02*
X129675000Y-99619999D01*
G75*
G02*
X129924999Y-99370000I249999J0D01*
G01*
X130575001Y-99370000D01*
G75*
G02*
X130825000Y-99619999I0J-249999D01*
G01*
X130825000Y-100520001D01*
G75*
G02*
X130575001Y-100770000I-249999J0D01*
G01*
X129924999Y-100770000D01*
G75*
G02*
X129675000Y-100520001I0J249999D01*
G01*
G37*
G36*
G01*
X113625000Y-95449999D02*
X113625000Y-96350001D01*
G75*
G02*
X113375001Y-96600000I-249999J0D01*
G01*
X112724999Y-96600000D01*
G75*
G02*
X112475000Y-96350001I0J249999D01*
G01*
X112475000Y-95449999D01*
G75*
G02*
X112724999Y-95200000I249999J0D01*
G01*
X113375001Y-95200000D01*
G75*
G02*
X113625000Y-95449999I0J-249999D01*
G01*
G37*
G36*
G01*
X111575000Y-95449999D02*
X111575000Y-96350001D01*
G75*
G02*
X111325001Y-96600000I-249999J0D01*
G01*
X110674999Y-96600000D01*
G75*
G02*
X110425000Y-96350001I0J249999D01*
G01*
X110425000Y-95449999D01*
G75*
G02*
X110674999Y-95200000I249999J0D01*
G01*
X111325001Y-95200000D01*
G75*
G02*
X111575000Y-95449999I0J-249999D01*
G01*
G37*
G36*
G01*
X131725000Y-112075001D02*
X131725000Y-111174999D01*
G75*
G02*
X131974999Y-110925000I249999J0D01*
G01*
X132625001Y-110925000D01*
G75*
G02*
X132875000Y-111174999I0J-249999D01*
G01*
X132875000Y-112075001D01*
G75*
G02*
X132625001Y-112325000I-249999J0D01*
G01*
X131974999Y-112325000D01*
G75*
G02*
X131725000Y-112075001I0J249999D01*
G01*
G37*
G36*
G01*
X129675000Y-112075001D02*
X129675000Y-111174999D01*
G75*
G02*
X129924999Y-110925000I249999J0D01*
G01*
X130575001Y-110925000D01*
G75*
G02*
X130825000Y-111174999I0J-249999D01*
G01*
X130825000Y-112075001D01*
G75*
G02*
X130575001Y-112325000I-249999J0D01*
G01*
X129924999Y-112325000D01*
G75*
G02*
X129675000Y-112075001I0J249999D01*
G01*
G37*
G36*
G01*
X129675000Y-108650001D02*
X129675000Y-107749999D01*
G75*
G02*
X129924999Y-107500000I249999J0D01*
G01*
X130575001Y-107500000D01*
G75*
G02*
X130825000Y-107749999I0J-249999D01*
G01*
X130825000Y-108650001D01*
G75*
G02*
X130575001Y-108900000I-249999J0D01*
G01*
X129924999Y-108900000D01*
G75*
G02*
X129675000Y-108650001I0J249999D01*
G01*
G37*
G36*
G01*
X131725000Y-108650001D02*
X131725000Y-107749999D01*
G75*
G02*
X131974999Y-107500000I249999J0D01*
G01*
X132625001Y-107500000D01*
G75*
G02*
X132875000Y-107749999I0J-249999D01*
G01*
X132875000Y-108650001D01*
G75*
G02*
X132625001Y-108900000I-249999J0D01*
G01*
X131974999Y-108900000D01*
G75*
G02*
X131725000Y-108650001I0J249999D01*
G01*
G37*
G36*
G01*
X93145001Y-106570000D02*
X92244999Y-106570000D01*
G75*
G02*
X91995000Y-106320001I0J249999D01*
G01*
X91995000Y-105669999D01*
G75*
G02*
X92244999Y-105420000I249999J0D01*
G01*
X93145001Y-105420000D01*
G75*
G02*
X93395000Y-105669999I0J-249999D01*
G01*
X93395000Y-106320001D01*
G75*
G02*
X93145001Y-106570000I-249999J0D01*
G01*
G37*
G36*
G01*
X93145001Y-108620000D02*
X92244999Y-108620000D01*
G75*
G02*
X91995000Y-108370001I0J249999D01*
G01*
X91995000Y-107719999D01*
G75*
G02*
X92244999Y-107470000I249999J0D01*
G01*
X93145001Y-107470000D01*
G75*
G02*
X93395000Y-107719999I0J-249999D01*
G01*
X93395000Y-108370001D01*
G75*
G02*
X93145001Y-108620000I-249999J0D01*
G01*
G37*
G36*
G01*
X108675000Y-111174999D02*
X108675000Y-112075001D01*
G75*
G02*
X108425001Y-112325000I-249999J0D01*
G01*
X107774999Y-112325000D01*
G75*
G02*
X107525000Y-112075001I0J249999D01*
G01*
X107525000Y-111174999D01*
G75*
G02*
X107774999Y-110925000I249999J0D01*
G01*
X108425001Y-110925000D01*
G75*
G02*
X108675000Y-111174999I0J-249999D01*
G01*
G37*
G36*
G01*
X110725000Y-111174999D02*
X110725000Y-112075001D01*
G75*
G02*
X110475001Y-112325000I-249999J0D01*
G01*
X109824999Y-112325000D01*
G75*
G02*
X109575000Y-112075001I0J249999D01*
G01*
X109575000Y-111174999D01*
G75*
G02*
X109824999Y-110925000I249999J0D01*
G01*
X110475001Y-110925000D01*
G75*
G02*
X110725000Y-111174999I0J-249999D01*
G01*
G37*
D19*
X41395000Y-21550000D03*
X36045000Y-21550000D03*
D20*
X37120000Y-26750000D03*
X37920000Y-26750000D03*
X38720000Y-26750000D03*
X39520000Y-26750000D03*
X40320000Y-26750000D03*
D21*
X35070000Y-24350000D03*
X42370000Y-24350000D03*
G36*
G01*
X51325000Y-62900001D02*
X51325000Y-61999999D01*
G75*
G02*
X51574999Y-61750000I249999J0D01*
G01*
X52225001Y-61750000D01*
G75*
G02*
X52475000Y-61999999I0J-249999D01*
G01*
X52475000Y-62900001D01*
G75*
G02*
X52225001Y-63150000I-249999J0D01*
G01*
X51574999Y-63150000D01*
G75*
G02*
X51325000Y-62900001I0J249999D01*
G01*
G37*
G36*
G01*
X53375000Y-62900001D02*
X53375000Y-61999999D01*
G75*
G02*
X53624999Y-61750000I249999J0D01*
G01*
X54275001Y-61750000D01*
G75*
G02*
X54525000Y-61999999I0J-249999D01*
G01*
X54525000Y-62900001D01*
G75*
G02*
X54275001Y-63150000I-249999J0D01*
G01*
X53624999Y-63150000D01*
G75*
G02*
X53375000Y-62900001I0J249999D01*
G01*
G37*
G36*
G01*
X130825000Y-96819999D02*
X130825000Y-97720001D01*
G75*
G02*
X130575001Y-97970000I-249999J0D01*
G01*
X129924999Y-97970000D01*
G75*
G02*
X129675000Y-97720001I0J249999D01*
G01*
X129675000Y-96819999D01*
G75*
G02*
X129924999Y-96570000I249999J0D01*
G01*
X130575001Y-96570000D01*
G75*
G02*
X130825000Y-96819999I0J-249999D01*
G01*
G37*
G36*
G01*
X132875000Y-96819999D02*
X132875000Y-97720001D01*
G75*
G02*
X132625001Y-97970000I-249999J0D01*
G01*
X131974999Y-97970000D01*
G75*
G02*
X131725000Y-97720001I0J249999D01*
G01*
X131725000Y-96819999D01*
G75*
G02*
X131974999Y-96570000I249999J0D01*
G01*
X132625001Y-96570000D01*
G75*
G02*
X132875000Y-96819999I0J-249999D01*
G01*
G37*
G36*
G01*
X37545001Y-35050000D02*
X36644999Y-35050000D01*
G75*
G02*
X36395000Y-34800001I0J249999D01*
G01*
X36395000Y-34149999D01*
G75*
G02*
X36644999Y-33900000I249999J0D01*
G01*
X37545001Y-33900000D01*
G75*
G02*
X37795000Y-34149999I0J-249999D01*
G01*
X37795000Y-34800001D01*
G75*
G02*
X37545001Y-35050000I-249999J0D01*
G01*
G37*
G36*
G01*
X37545001Y-33000000D02*
X36644999Y-33000000D01*
G75*
G02*
X36395000Y-32750001I0J249999D01*
G01*
X36395000Y-32099999D01*
G75*
G02*
X36644999Y-31850000I249999J0D01*
G01*
X37545001Y-31850000D01*
G75*
G02*
X37795000Y-32099999I0J-249999D01*
G01*
X37795000Y-32750001D01*
G75*
G02*
X37545001Y-33000000I-249999J0D01*
G01*
G37*
G36*
G01*
X39995001Y-33000000D02*
X39094999Y-33000000D01*
G75*
G02*
X38845000Y-32750001I0J249999D01*
G01*
X38845000Y-32099999D01*
G75*
G02*
X39094999Y-31850000I249999J0D01*
G01*
X39995001Y-31850000D01*
G75*
G02*
X40245000Y-32099999I0J-249999D01*
G01*
X40245000Y-32750001D01*
G75*
G02*
X39995001Y-33000000I-249999J0D01*
G01*
G37*
G36*
G01*
X39995001Y-35050000D02*
X39094999Y-35050000D01*
G75*
G02*
X38845000Y-34800001I0J249999D01*
G01*
X38845000Y-34149999D01*
G75*
G02*
X39094999Y-33900000I249999J0D01*
G01*
X39995001Y-33900000D01*
G75*
G02*
X40245000Y-34149999I0J-249999D01*
G01*
X40245000Y-34800001D01*
G75*
G02*
X39995001Y-35050000I-249999J0D01*
G01*
G37*
D22*
X51900000Y-71800000D03*
X51900000Y-65500000D03*
X48100000Y-71800000D03*
X48100000Y-65500000D03*
D23*
G36*
X105906371Y-106389214D02*
G01*
X105057843Y-107237742D01*
X104067893Y-106247792D01*
X104916421Y-105399264D01*
X105906371Y-106389214D01*
G37*
G36*
X104350736Y-104833579D02*
G01*
X103502208Y-105682107D01*
X102512258Y-104692157D01*
X103360786Y-103843629D01*
X104350736Y-104833579D01*
G37*
G36*
X107037742Y-105257843D02*
G01*
X106189214Y-106106371D01*
X105199264Y-105116421D01*
X106047792Y-104267893D01*
X107037742Y-105257843D01*
G37*
G36*
X105482107Y-103702208D02*
G01*
X104633579Y-104550736D01*
X103643629Y-103560786D01*
X104492157Y-102712258D01*
X105482107Y-103702208D01*
G37*
D18*
X152525000Y-111250000D03*
X149375000Y-111250000D03*
D17*
X147050000Y-111250000D03*
D16*
X154850000Y-111250000D03*
D24*
X45000000Y-48575000D03*
X45000000Y-105715000D03*
X148582499Y-67600000D03*
X207972500Y-105722500D03*
X280400000Y-48600000D03*
X286712500Y-105722500D03*
M02*
