M48
; DRILL file {KiCad (5.1.9-1-g591a07d2d9)-1} date 07/12/21 22:14:42
; FORMAT={-:-/ absolute / metric / decimal}
; #@! TF.CreationDate,2021-07-12T22:14:42-06:00
; #@! TF.GenerationSoftware,Kicad,Pcbnew,(5.1.9-1-g591a07d2d9)-1
; #@! TF.FileFunction,Plated,1,2,PTH
FMAT,2
METRIC
T1C0.400
T2C0.700
T3C1.470
T4C2.500
%
G90
G05
T1
X42.55Y-52.8
X42.55Y-55.4
X44.95Y-71.8
X48.25Y-57.75
X57.2Y-57.75
X61.55Y-92.2
X89.575Y-100.9
X89.575Y-101.96
X90.25Y-63.6
X91.05Y-62.6
X91.85Y-61.6
X95.797Y-105.995
X95.8Y-108.05
X95.8Y-109.17
X104.9Y-97.2
X106.0Y-97.2
X107.1Y-97.2
X107.7Y-64.6
X108.2Y-97.2
X108.5Y-63.6
X109.075Y-108.05
X109.075Y-109.17
X109.3Y-62.6
X110.1Y-61.6
X110.9Y-64.6
X111.7Y-63.6
X112.5Y-62.6
X114.909Y-112.567
X115.693Y-112.393
X116.475Y-112.225
X117.2Y-96.6
X118.0Y-95.95
X118.8Y-95.3
X118.912Y-103.815
X119.6Y-94.65
X120.02Y-107.645
X120.4Y-96.6
X121.2Y-95.95
X122.0Y-95.3
X122.8Y-48.55
X122.8Y-94.65
X126.7Y-48.55
X127.6Y-67.6
X131.45Y-67.6
X133.8Y-101.275
X133.8Y-106.875
X136.8Y-101.525
X137.5Y-102.325
X138.2Y-103.225
X138.9Y-104.025
X162.1Y-46.425
X162.9Y-45.525
X163.7Y-44.525
X280.8Y-39.35
X280.8Y-42.35
T2
X25.65Y-35.05
X28.0Y-111.25
X30.4Y-54.1
X32.79Y-73.15
X33.45Y-35.05
X35.8Y-111.25
X37.55Y-92.2
X38.2Y-54.1
X40.59Y-73.15
X44.7Y-35.05
X45.35Y-92.2
X51.8Y-111.25
X52.5Y-35.05
X54.2Y-54.1
X58.95Y-73.15
X59.6Y-111.25
X62.0Y-54.1
X63.75Y-35.05
X66.75Y-73.15
X68.5Y-92.2
X71.55Y-35.05
X73.25Y-54.1
X75.65Y-111.25
X76.3Y-92.2
X78.0Y-73.15
X81.05Y-54.1
X82.8Y-35.05
X83.45Y-111.25
X85.8Y-73.15
X87.55Y-92.2
X90.6Y-35.05
X92.3Y-54.1
X95.35Y-92.2
X97.05Y-73.15
X100.1Y-54.1
X101.85Y-35.05
X104.85Y-73.15
X106.6Y-92.2
X109.65Y-35.05
X111.325Y-54.1
X114.4Y-92.2
X116.1Y-73.15
X119.125Y-54.1
X120.9Y-35.05
X123.9Y-73.15
X125.65Y-92.2
X128.7Y-35.05
X130.425Y-54.1
X133.45Y-92.2
X135.15Y-73.15
X138.225Y-54.1
X139.95Y-35.05
X142.95Y-73.15
X144.7Y-92.2
X147.05Y-111.25
X147.75Y-35.05
X149.45Y-54.1
X152.5Y-92.2
X154.2Y-73.15
X154.85Y-111.25
X157.25Y-54.1
X159.0Y-35.05
X162.0Y-73.15
X163.75Y-92.2
X166.8Y-35.05
X168.45Y-54.1
X171.55Y-92.2
X173.25Y-73.15
X176.25Y-54.1
X178.05Y-35.05
X181.05Y-73.15
X182.8Y-92.2
X185.85Y-35.05
X187.55Y-54.1
X190.6Y-92.2
X192.3Y-73.15
X195.35Y-54.1
X197.1Y-35.05
X200.1Y-73.15
X201.85Y-92.2
X204.9Y-35.05
X206.6Y-54.1
X209.65Y-92.2
X211.35Y-73.15
X214.4Y-54.1
X216.15Y-35.05
X216.15Y-111.25
X219.15Y-73.15
X220.85Y-92.2
X223.95Y-35.05
X223.95Y-111.25
X225.65Y-54.1
X228.65Y-92.2
X230.4Y-73.15
X233.45Y-54.1
X235.2Y-35.05
X235.2Y-111.25
X238.2Y-73.15
X239.95Y-92.2
X243.0Y-35.05
X243.0Y-111.25
X244.7Y-54.1
X247.75Y-92.2
X249.45Y-73.15
X252.5Y-54.1
X254.25Y-35.05
X254.25Y-111.25
X257.25Y-73.15
X262.05Y-35.05
X262.05Y-111.25
X263.7Y-54.1
X266.15Y-92.2
X271.5Y-54.1
X273.3Y-111.25
X273.95Y-92.2
X280.4Y-73.15
X281.1Y-111.25
X282.8Y-35.05
X287.55Y-54.1
X288.2Y-73.15
X290.6Y-35.05
X292.35Y-92.2
X292.35Y-111.25
X295.35Y-54.1
X300.15Y-92.2
X300.15Y-111.25
X311.4Y-35.05
X311.4Y-54.1
X311.4Y-73.15
X311.4Y-92.2
X311.4Y-111.25
X319.2Y-35.05
X319.2Y-54.1
X319.2Y-73.15
X319.2Y-92.2
X319.2Y-111.25
T3
X25.715Y-26.985
X27.025Y-25.525
X28.096Y-103.185
X29.406Y-101.725
X30.477Y-46.035
X31.787Y-44.575
X32.025Y-25.025
X32.065Y-24.445
X32.859Y-65.085
X34.169Y-63.625
X34.406Y-101.225
X34.446Y-100.645
X36.788Y-44.075
X36.828Y-43.495
X37.621Y-84.135
X38.931Y-82.675
X39.169Y-63.125
X39.209Y-62.545
X43.931Y-82.175
X43.971Y-81.595
X44.765Y-26.985
X46.075Y-25.525
X51.075Y-25.025
X51.115Y-24.445
X51.909Y-103.185
X53.219Y-101.725
X54.29Y-46.035
X55.6Y-44.575
X58.219Y-101.225
X58.259Y-100.645
X59.052Y-65.085
X60.362Y-63.625
X60.6Y-44.075
X60.64Y-43.495
X63.815Y-26.985
X65.125Y-25.525
X65.362Y-63.125
X65.403Y-62.545
X68.578Y-84.135
X69.888Y-82.675
X70.125Y-25.025
X70.165Y-24.445
X73.34Y-46.035
X74.65Y-44.575
X74.888Y-82.175
X74.927Y-81.595
X75.721Y-103.185
X77.031Y-101.725
X78.102Y-65.085
X79.412Y-63.625
X79.65Y-44.075
X79.69Y-43.495
X82.031Y-101.225
X82.071Y-100.645
X82.865Y-26.985
X84.175Y-25.525
X84.412Y-63.125
X84.453Y-62.545
X87.627Y-84.135
X88.938Y-82.675
X89.175Y-25.025
X89.215Y-24.445
X92.39Y-46.035
X93.7Y-44.575
X93.938Y-82.175
X93.977Y-81.595
X97.152Y-65.085
X98.462Y-63.625
X98.7Y-44.075
X98.74Y-43.495
X101.915Y-26.985
X103.225Y-25.525
X103.462Y-63.125
X103.502Y-62.545
X106.677Y-84.135
X107.987Y-82.675
X108.225Y-25.025
X108.265Y-24.445
X111.44Y-46.035
X112.75Y-44.575
X112.987Y-82.175
X113.027Y-81.595
X116.203Y-65.085
X117.512Y-63.625
X117.75Y-44.075
X117.79Y-43.495
X120.965Y-26.985
X122.275Y-25.525
X122.512Y-63.125
X122.552Y-62.545
X125.727Y-84.135
X127.037Y-82.675
X127.275Y-25.025
X127.315Y-24.445
X130.49Y-46.035
X131.8Y-44.575
X132.037Y-82.175
X132.077Y-81.595
X135.252Y-65.085
X136.562Y-63.625
X136.8Y-44.075
X136.84Y-43.495
X140.015Y-26.985
X141.325Y-25.525
X141.562Y-63.125
X141.602Y-62.545
X144.778Y-84.135
X146.088Y-82.675
X146.325Y-25.025
X146.365Y-24.445
X147.16Y-103.185
X148.47Y-101.725
X149.54Y-46.035
X150.85Y-44.575
X151.088Y-82.175
X151.127Y-81.595
X153.47Y-101.225
X153.51Y-100.645
X154.302Y-65.085
X155.612Y-63.625
X155.85Y-44.075
X155.89Y-43.495
X159.065Y-26.985
X160.375Y-25.525
X160.612Y-63.125
X160.653Y-62.545
X163.827Y-84.135
X165.137Y-82.675
X165.375Y-25.025
X165.415Y-24.445
X168.59Y-46.035
X169.9Y-44.575
X170.137Y-82.175
X170.177Y-81.595
X173.352Y-65.085
X174.662Y-63.625
X174.9Y-44.075
X174.94Y-43.495
X178.115Y-26.985
X179.425Y-25.525
X179.662Y-63.125
X179.702Y-62.545
X182.877Y-84.135
X184.188Y-82.675
X184.425Y-25.025
X184.465Y-24.445
X187.64Y-46.035
X188.95Y-44.575
X189.188Y-82.175
X189.227Y-81.595
X192.403Y-65.085
X193.712Y-63.625
X193.95Y-44.075
X193.99Y-43.495
X197.165Y-26.985
X198.475Y-25.525
X198.712Y-63.125
X198.752Y-62.545
X201.927Y-84.135
X203.237Y-82.675
X203.475Y-25.025
X203.515Y-24.445
X206.69Y-46.035
X208.0Y-44.575
X208.237Y-82.175
X208.278Y-81.595
X211.452Y-65.085
X212.762Y-63.625
X213.0Y-44.075
X213.04Y-43.495
X216.215Y-26.985
X216.215Y-103.185
X217.525Y-25.525
X217.525Y-101.725
X217.762Y-63.125
X217.802Y-62.545
X220.977Y-84.135
X222.287Y-82.675
X222.525Y-25.025
X222.525Y-101.225
X222.565Y-24.445
X222.565Y-100.645
X225.74Y-46.035
X227.05Y-44.575
X227.287Y-82.175
X227.327Y-81.595
X230.502Y-65.085
X231.812Y-63.625
X232.05Y-44.075
X232.09Y-43.495
X235.265Y-26.985
X235.265Y-103.185
X236.575Y-25.525
X236.575Y-101.725
X236.812Y-63.125
X236.852Y-62.545
X240.027Y-84.135
X241.337Y-82.675
X241.575Y-25.025
X241.575Y-101.225
X241.615Y-24.445
X241.615Y-100.645
X244.79Y-46.035
X246.1Y-44.575
X246.337Y-82.175
X246.377Y-81.595
X249.552Y-65.085
X250.862Y-63.625
X251.1Y-44.075
X251.14Y-43.495
X254.315Y-26.985
X254.315Y-103.185
X255.625Y-25.525
X255.625Y-101.725
X255.862Y-63.125
X255.902Y-62.545
X260.625Y-25.025
X260.625Y-101.225
X260.665Y-24.445
X260.665Y-100.645
X263.84Y-46.035
X265.15Y-44.575
X266.221Y-84.135
X267.531Y-82.675
X270.15Y-44.075
X270.19Y-43.495
X272.531Y-82.175
X272.571Y-81.595
X273.365Y-103.185
X274.675Y-101.725
X279.675Y-101.225
X279.715Y-100.645
X280.509Y-65.085
X281.819Y-63.625
X282.89Y-26.985
X284.2Y-25.525
X286.819Y-63.125
X286.859Y-62.545
X287.652Y-46.035
X288.962Y-44.575
X289.2Y-25.025
X289.24Y-24.445
X292.415Y-84.135
X292.415Y-103.185
X293.725Y-82.675
X293.725Y-101.725
X293.962Y-44.075
X294.002Y-43.495
X298.725Y-82.175
X298.725Y-101.225
X298.765Y-81.595
X298.765Y-100.645
X311.465Y-26.985
X311.465Y-46.035
X311.465Y-65.085
X311.465Y-84.135
X311.465Y-103.185
X312.775Y-25.525
X312.775Y-44.575
X312.775Y-63.625
X312.775Y-82.675
X312.775Y-101.725
X317.775Y-25.025
X317.775Y-44.075
X317.775Y-63.125
X317.775Y-82.175
X317.775Y-101.225
X317.815Y-24.445
X317.815Y-43.495
X317.815Y-62.545
X317.815Y-81.595
X317.815Y-100.645
T2
G00X35.07Y-23.1
M15
G01X35.07Y-25.6
M16
G05
G00X42.37Y-23.1
M15
G01X42.37Y-25.6
M16
G05
T4
G00X43.75Y-48.575
M15
G01X46.25Y-48.575
M16
G05
G00X43.75Y-105.715
M15
G01X46.25Y-105.715
M16
G05
G00X147.332Y-67.6
M15
G01X149.832Y-67.6
M16
G05
G00X206.722Y-105.722
M15
G01X209.222Y-105.722
M16
G05
G00X279.15Y-48.6
M15
G01X281.65Y-48.6
M16
G05
G00X285.462Y-105.722
M15
G01X287.962Y-105.722
M16
G05
T0
M30
